{"glyphs":{"0":{"ha":771,"x_min":0,"x_max":674,"o":"m 336 1053 q 467 1026 406 1053 q 575 954 529 1000 q 647 847 621 908 q 674 715 674 785 l 674 336 q 647 206 674 267 q 575 99 621 144 q 467 26 529 53 q 336 0 406 0 q 206 26 267 0 q 99 99 144 53 q 26 206 53 144 q 0 336 0 267 l 0 715 q 26 847 0 785 q 99 954 53 908 q 206 1026 144 1000 q 336 1053 267 1053 m 210 336 q 247 247 210 283 q 336 210 283 210 q 385 219 363 210 q 426 247 408 229 q 453 287 443 264 q 463 336 463 310 l 463 715 q 453 765 463 742 q 426 805 443 788 q 385 832 408 822 q 336 842 363 842 q 247 805 283 842 q 210 715 210 768 l 210 336 z "},"1":{"ha":392,"x_min":0,"x_max":294,"o":"m 85 0 l 85 842 l 0 842 l 85 1053 l 294 1053 l 294 0 l 85 0 l 85 0 l 85 0 z "},"2":{"ha":707,"x_min":0,"x_max":610,"o":"m 274 1053 q 404 1026 343 1053 q 511 954 465 1000 q 583 847 557 908 q 610 715 610 785 q 585 588 610 647 q 517 483 561 528 q 461 436 492 457 q 380 389 424 411 q 298 342 336 367 q 235 285 260 317 q 210 210 210 254 l 610 210 l 610 0 l 0 0 l 0 210 q 35 361 0 288 q 82 431 56 400 q 140 488 108 463 q 208 533 172 513 q 281 575 243 554 q 335 605 308 590 q 379 646 361 619 q 400 715 400 678 q 363 805 400 768 q 274 842 326 842 q 200 818 232 842 q 154 757 168 794 l 0 913 q 117 1015 46 976 q 274 1053 189 1053 z "},"3":{"ha":732,"x_min":0,"x_max":635,"o":"m 531 581 q 607 472 579 535 q 635 336 635 410 q 608 206 635 267 q 536 99 582 144 q 429 26 490 53 q 299 0 368 0 q 140 24 215 0 q 0 93 64 49 l 85 294 q 181 232 126 254 q 299 210 236 210 q 388 247 351 210 q 425 336 425 283 q 415 385 425 363 q 388 426 406 408 q 348 453 371 443 q 299 463 325 463 l 257 463 l 257 674 l 299 674 q 356 699 332 675 q 379 757 379 724 q 355 817 379 793 q 294 842 331 842 q 235 817 260 842 q 210 757 210 793 l 49 919 q 153 1017 89 981 q 294 1053 217 1053 q 409 1030 356 1053 q 503 967 463 1007 q 566 872 543 926 q 589 757 589 818 q 574 663 589 708 q 531 581 558 618 z "},"4":{"ha":789,"x_min":0,"x_max":692,"o":"m 397 0 l 397 253 l 0 253 l 0 446 l 394 1053 l 607 1053 l 607 463 l 692 463 l 692 253 l 607 253 l 607 0 l 397 0 l 397 0 l 397 0 m 263 463 l 397 463 l 397 671 l 263 463 l 263 463 l 263 463 z "},"5":{"ha":732,"x_min":0,"x_max":635,"o":"m 593 842 l 294 842 l 294 674 l 299 674 q 429 647 368 674 q 536 575 490 621 q 608 467 582 529 q 635 336 635 406 q 608 206 635 267 q 536 99 582 144 q 429 26 490 53 q 299 0 368 0 q 140 24 215 0 q 0 93 64 49 l 85 294 q 181 232 126 254 q 299 210 236 210 q 388 247 351 210 q 425 336 425 283 q 415 385 425 363 q 388 426 406 408 q 348 453 371 443 q 299 463 325 463 l 85 463 l 85 1053 l 593 1053 l 593 842 z "},"6":{"ha":771,"x_min":0,"x_max":674,"o":"m 379 671 q 495 635 442 664 q 588 561 549 606 q 651 459 628 517 q 674 338 674 401 q 647 206 674 268 q 575 99 621 144 q 468 26 529 53 q 338 0 407 0 q 207 26 268 0 q 100 99 146 53 q 27 206 54 144 q 0 336 0 267 l 0 338 q 26 460 0 406 q 83 571 51 514 l 350 1053 l 590 1053 l 379 671 m 211 336 q 248 247 211 283 q 338 211 285 211 q 427 248 390 211 q 464 338 464 285 q 427 427 464 390 q 338 464 390 464 q 288 454 311 464 q 248 427 265 444 q 221 387 231 410 q 211 338 211 364 l 211 336 z "},"7":{"ha":749,"x_min":0,"x_max":651,"o":"m 226 0 l 0 0 l 339 842 l 0 842 l 0 1053 l 651 1053 l 226 0 l 226 0 l 226 0 z "},"8":{"ha":771,"x_min":0,"x_max":674,"o":"m 571 579 q 646 471 618 533 q 674 336 674 408 q 647 206 674 267 q 575 99 621 144 q 468 26 529 53 q 338 0 407 0 l 336 0 q 206 26 267 0 q 99 99 144 53 q 26 206 53 144 q 0 336 0 267 q 27 471 0 408 q 103 579 54 533 q 58 661 75 615 q 42 757 42 707 q 65 872 42 818 q 128 965 88 925 q 222 1029 168 1006 q 336 1053 275 1053 q 451 1029 397 1053 q 544 965 504 1006 q 608 872 585 925 q 631 757 631 818 q 615 661 631 707 q 571 579 599 615 m 338 210 q 426 247 390 211 q 463 336 463 283 q 426 426 463 389 q 338 463 390 463 l 336 463 q 247 426 283 463 q 210 336 210 389 q 247 247 210 283 q 336 210 283 211 l 338 210 m 338 674 q 397 698 372 674 q 421 757 421 722 q 397 817 421 793 q 336 842 372 842 q 277 817 301 842 q 253 757 253 793 q 277 698 253 722 q 336 674 301 674 l 338 674 z "},"9":{"ha":771,"x_min":0,"x_max":674,"o":"m 294 382 q 178 418 232 389 q 85 492 125 447 q 23 594 46 536 q 0 715 0 651 q 26 847 0 785 q 99 954 53 908 q 206 1026 144 1000 q 336 1053 267 1053 q 467 1026 406 1053 q 574 954 528 1000 q 647 847 619 908 q 674 717 674 786 l 674 715 q 667 651 674 681 q 648 593 660 621 q 621 538 636 565 q 590 482 606 511 l 324 0 l 83 0 l 294 382 m 463 717 q 426 806 463 769 q 336 842 389 842 q 247 805 283 842 q 210 715 210 768 q 247 626 210 663 q 336 589 283 589 q 385 599 363 589 q 426 626 408 608 q 453 666 443 643 q 463 715 463 689 l 463 717 z "},"\u0000":{"ha":0,"x_min":0,"x_max":0,"o":""},"\r":{"ha":417,"x_min":0,"x_max":0,"o":""}," ":{"ha":417,"x_min":0,"x_max":0,"o":""},")":{"ha":414,"x_min":0,"x_max":315,"o":"m 146 1221 q 273 863 231 1033 q 315 526 315 693 q 273 190 315 360 q 146 -168 231 19 l 0 -83 q 110 231 74 82 q 147 526 147 381 q 110 822 147 672 q 0 1136 74 971 l 146 1221 z "},"(":{"ha":414,"x_min":1,"x_max":317,"o":"m 171 1221 l 317 1136 q 206 822 243 971 q 168 526 168 672 q 206 231 168 381 q 317 -83 243 82 l 171 -168 q 44 190 86 19 q 1 526 1 360 q 44 863 1 693 q 171 1221 86 1033 z "},"}":{"ha":442,"x_min":0,"x_max":344,"o":"m 190 526 q 144 596 161 556 q 126 681 126 636 l 126 1044 q 112 1080 126 1065 q 76 1094 97 1094 l 0 1094 l 0 1221 l 76 1221 q 162 1203 122 1221 q 231 1156 201 1186 q 277 1087 260 1126 q 294 1003 294 1047 l 294 639 q 309 603 294 618 q 344 589 324 589 l 344 463 q 309 448 324 463 q 294 414 294 433 l 294 50 q 277 -35 294 4 q 231 -104 260 -75 q 162 -151 201 -133 q 76 -168 122 -168 l 0 -168 l 0 -42 l 76 -42 q 112 -27 97 -42 q 126 7 126 -12 l 126 371 q 144 456 126 417 q 190 526 161 496 z "},"{":{"ha":442,"x_min":0,"x_max":344,"o":"m 154 526 q 201 456 183 496 q 218 371 218 417 l 218 7 q 233 -27 218 -12 q 268 -42 247 -42 l 344 -42 l 344 -168 l 268 -168 q 183 -151 222 -168 q 114 -104 143 -133 q 67 -35 85 -75 q 50 50 50 4 l 50 414 q 35 448 50 433 q 0 463 21 463 l 0 589 q 35 603 21 589 q 50 639 50 618 l 50 1003 q 67 1087 50 1047 q 114 1156 85 1126 q 183 1203 143 1186 q 268 1221 222 1221 l 344 1221 l 344 1094 l 268 1094 q 233 1080 247 1094 q 218 1044 218 1065 l 218 681 q 201 596 218 636 q 154 526 183 556 z "},"]":{"ha":392,"x_min":0,"x_max":294,"o":"m 0 -168 l 0 -42 l 126 -42 l 126 1094 l 0 1094 l 0 1221 l 294 1221 l 294 -168 l 0 -168 l 0 -168 l 0 -168 z "},"[":{"ha":392,"x_min":0,"x_max":294,"o":"m 294 -168 l 294 -168 l 0 -168 l 0 1221 l 294 1221 l 294 1094 l 168 1094 l 168 -42 l 294 -42 l 294 -168 z "},"|":{"ha":265,"x_min":0,"x_max":168,"o":"m 0 -168 l 0 1221 l 168 1221 l 168 -168 l 0 -168 l 0 -168 l 0 -168 z "},"&":{"ha":728,"x_min":0,"x_max":631,"o":"m 315 1053 q 462 1015 399 1053 q 557 911 525 976 l 421 775 q 415 815 421 796 q 397 850 410 835 q 365 874 385 865 q 315 883 344 883 q 266 874 286 883 q 233 850 246 865 q 215 815 221 835 q 210 775 210 796 q 222 723 210 747 q 253 678 235 699 l 463 436 l 463 631 l 631 631 l 631 315 q 606 192 631 250 q 538 92 581 135 q 438 25 496 50 q 315 0 381 0 q 192 25 250 0 q 92 92 135 50 q 25 192 50 135 q 0 315 0 250 q 34 458 0 393 q 126 568 68 524 q 65 664 88 613 q 42 775 42 715 q 62 885 42 835 q 118 974 82 936 q 204 1032 154 1011 q 315 1053 254 1053 m 238 440 q 187 388 206 421 q 168 315 168 356 q 180 258 168 285 q 212 212 192 232 q 258 180 232 192 q 315 168 285 168 q 379 182 350 168 q 428 219 408 196 l 238 440 z "},"@":{"ha":1150,"x_min":0,"x_max":1053,"o":"m 917 174 q 744 47 844 93 q 526 0 643 0 q 322 42 418 0 q 155 155 226 83 q 42 322 83 226 q 0 526 0 418 q 42 731 0 635 q 155 898 83 826 q 322 1011 226 969 q 526 1053 418 1053 q 731 1011 635 1053 q 898 898 826 969 q 1011 731 969 826 q 1053 526 1053 635 l 1051 526 q 1034 440 1051 481 q 986 368 1017 399 q 915 320 956 338 q 829 303 875 303 q 732 325 776 303 q 656 385 688 347 q 572 299 622 333 q 442 265 521 265 q 299 316 346 265 q 253 463 253 367 q 290 628 253 560 q 382 737 328 697 q 497 785 436 776 q 606 768 558 793 l 606 779 l 732 779 l 732 526 q 760 458 732 486 q 829 429 789 429 q 897 458 869 429 q 925 526 925 486 l 926 526 q 895 683 926 610 q 810 810 864 756 q 683 895 756 864 q 526 926 610 926 q 370 895 443 926 q 243 810 297 864 q 158 683 189 756 q 126 526 126 610 q 158 370 126 443 q 243 243 189 297 q 370 158 297 189 q 526 126 443 126 q 694 163 617 126 q 828 263 772 200 l 917 174 m 606 664 q 569 689 590 682 q 525 691 549 696 q 478 669 501 686 q 436 622 456 651 q 403 548 417 593 q 391 461 390 503 q 408 390 392 419 q 467 360 425 360 q 524 374 499 360 q 568 413 550 389 q 596 465 586 436 q 606 521 606 493 l 606 664 z "},"#":{"ha":1150,"x_min":0,"x_max":1053,"o":"m 642 0 l 467 0 l 543 274 l 368 274 l 292 0 l 117 0 l 193 274 l 0 274 l 0 442 l 240 442 l 288 610 l 0 610 l 0 779 l 335 779 l 411 1053 l 586 1053 l 510 779 l 685 779 l 761 1053 l 936 1053 l 858 779 l 1053 779 l 1053 610 l 813 610 l 765 442 l 1053 442 l 1053 274 l 718 274 l 642 0 l 642 0 l 642 0 m 590 442 l 638 610 l 463 610 l 415 442 l 590 442 l 590 442 l 590 442 z "},"‰":{"ha":1604,"x_min":0,"x_max":1507,"o":"m 1086 210 l 1086 322 q 1103 404 1086 365 q 1148 472 1119 443 q 1215 517 1176 500 q 1296 533 1253 533 q 1378 517 1339 533 q 1445 472 1417 500 q 1490 404 1474 443 q 1507 322 1507 365 l 1507 210 q 1490 128 1507 167 q 1445 62 1474 90 q 1378 17 1417 33 q 1296 0 1339 0 q 1215 17 1253 0 q 1148 62 1176 33 q 1103 128 1119 90 q 1086 210 1086 167 m 0 729 l 0 842 q 17 924 0 885 q 62 991 33 963 q 128 1036 90 1019 q 210 1053 167 1053 q 292 1036 253 1053 q 359 991 331 1019 q 404 924 388 963 q 421 842 421 885 l 421 729 q 404 648 421 686 q 359 581 388 610 q 292 536 331 553 q 210 519 253 519 q 128 536 167 519 q 62 581 90 553 q 17 648 33 610 q 0 729 0 686 m 438 0 l 311 0 l 606 1053 l 732 1053 l 438 0 m 622 210 l 622 322 q 639 404 622 365 q 684 472 656 443 q 751 517 713 500 q 833 533 789 533 q 915 517 876 533 q 983 472 954 500 q 1028 404 1011 443 q 1044 322 1044 365 l 1044 210 q 1028 128 1044 167 q 983 62 1011 90 q 915 17 954 33 q 833 0 876 0 q 751 17 789 0 q 684 62 713 33 q 639 128 656 90 q 622 210 622 167 m 918 322 q 893 383 918 358 q 833 407 868 407 q 774 383 799 407 q 749 322 749 358 l 749 210 q 774 151 749 175 q 833 126 799 126 q 893 151 868 126 q 918 210 918 175 l 918 322 m 294 842 q 270 902 294 878 q 210 926 246 926 q 151 902 175 926 q 126 842 126 878 l 126 729 q 151 670 126 694 q 210 646 175 646 q 270 670 246 646 q 294 729 294 694 l 294 842 m 1381 322 q 1356 383 1381 358 q 1296 407 1332 407 q 1237 383 1261 407 q 1213 322 1213 358 l 1213 210 q 1237 151 1213 175 q 1296 126 1261 126 q 1356 151 1332 126 q 1381 210 1381 175 l 1381 322 z "},"%":{"ha":1142,"x_min":0,"x_max":1044,"o":"m 0 729 l 0 842 q 17 924 0 885 q 62 991 33 963 q 128 1036 90 1019 q 210 1053 167 1053 q 292 1036 253 1053 q 359 991 331 1019 q 404 924 388 963 q 421 842 421 885 l 421 729 q 404 648 421 686 q 359 581 388 610 q 292 536 331 553 q 210 519 253 519 q 128 536 167 519 q 62 581 90 553 q 17 648 33 610 q 0 729 0 686 m 438 0 l 311 0 l 606 1053 l 732 1053 l 438 0 m 622 210 l 622 322 q 639 404 622 365 q 684 472 656 443 q 751 517 713 500 q 833 533 789 533 q 915 517 876 533 q 983 472 954 500 q 1028 404 1011 443 q 1044 322 1044 365 l 1044 210 q 1028 128 1044 167 q 983 62 1011 90 q 915 17 954 33 q 833 0 876 0 q 751 17 789 0 q 684 62 713 33 q 639 128 656 90 q 622 210 622 167 m 918 322 q 893 383 918 358 q 833 407 868 407 q 774 383 799 407 q 749 322 749 358 l 749 210 q 774 151 749 175 q 833 126 799 126 q 893 151 868 126 q 918 210 918 175 l 918 322 m 294 842 q 270 902 294 878 q 210 926 246 926 q 151 902 175 926 q 126 842 126 878 l 126 729 q 151 670 126 694 q 210 646 175 646 q 270 670 246 646 q 294 729 294 694 l 294 842 z "},"/":{"ha":567,"x_min":0,"x_max":469,"o":"m 175 0 l 0 0 l 294 1053 l 469 1053 l 175 0 l 175 0 l 175 0 z "},"\\":{"ha":567,"x_min":0,"x_max":469,"o":"m 294 0 l 294 0 l 0 1053 l 175 1053 l 469 0 l 294 0 z "},"?":{"ha":736,"x_min":0,"x_max":639,"o":"m 639 736 q 613 616 639 663 q 549 533 586 569 q 472 458 511 496 q 406 365 432 421 q 386 294 390 332 l 175 294 q 235 492 183 406 q 272 542 251 521 q 315 584 293 564 q 360 624 338 604 q 404 668 383 643 q 428 736 428 699 q 397 811 428 781 q 324 842 367 842 q 231 828 275 842 q 150 790 188 814 l 0 942 q 149 1024 67 994 q 324 1053 232 1053 q 447 1028 389 1053 q 547 960 504 1003 q 614 859 589 917 q 639 736 639 801 m 278 210 q 353 180 322 210 q 383 106 383 150 q 353 31 383 61 q 278 0 322 0 q 203 31 233 0 q 174 106 174 61 q 203 180 174 150 q 278 210 233 210 z "},"¿":{"ha":736,"x_min":0,"x_max":639,"o":"m 0 149 q 25 26 0 83 q 92 -75 50 -32 q 192 -143 135 -118 q 315 -168 250 -168 q 490 -139 407 -168 q 639 -57 572 -110 l 489 94 q 408 57 451 71 q 315 43 364 43 q 242 74 272 43 q 211 149 211 104 q 235 217 211 186 q 278 261 256 242 q 324 301 301 281 q 367 342 346 321 q 404 393 388 364 q 464 590 456 479 l 253 590 q 233 519 249 553 q 167 426 207 463 q 90 352 128 389 q 26 269 53 315 q 0 149 0 222 m 361 675 q 286 705 317 675 q 256 779 256 735 q 286 854 256 824 q 361 885 317 885 q 435 854 406 885 q 465 779 465 824 q 435 705 465 735 q 361 675 406 675 z "},"\"":{"ha":476,"x_min":0,"x_max":379,"o":"m 85 1053 q 144 1028 119 1053 q 168 968 168 1003 q 160 935 168 951 q 143 901 153 918 l 85 800 l 25 800 l 54 889 q 15 919 31 899 q 0 968 0 940 q 24 1028 0 1003 q 85 1053 49 1053 m 294 1053 q 355 1028 331 1053 q 379 968 379 1003 q 371 935 379 951 q 354 901 363 918 l 294 800 l 235 800 l 264 889 q 225 919 240 899 q 210 968 210 940 q 235 1028 210 1003 q 294 1053 260 1053 z "},"”":{"ha":476,"x_min":0,"x_max":379,"o":"m 85 1053 q 144 1028 119 1053 q 168 968 168 1003 q 160 935 168 951 q 143 901 153 918 l 85 800 l 25 800 l 54 889 q 15 919 31 899 q 0 968 0 940 q 24 1028 0 1003 q 85 1053 49 1053 m 294 1053 q 355 1028 331 1053 q 379 968 379 1003 q 371 935 379 951 q 354 901 363 918 l 294 800 l 235 800 l 264 889 q 225 919 240 899 q 210 968 210 940 q 235 1028 210 1003 q 294 1053 260 1053 z "},"“":{"ha":476,"x_min":0,"x_max":379,"o":"m 294 889 q 235 914 260 889 q 211 974 211 939 q 219 1007 211 990 q 236 1040 226 1024 l 294 1142 l 354 1142 l 325 1053 q 364 1022 349 1043 q 379 974 379 1001 q 355 914 379 939 q 294 889 331 889 m 85 889 q 24 914 49 889 q 0 974 0 939 q 8 1007 0 990 q 25 1040 17 1024 l 85 1142 l 144 1142 l 115 1053 q 154 1022 139 1043 q 169 974 169 1001 q 144 914 169 939 q 85 889 119 889 z "},"„":{"ha":476,"x_min":0,"x_max":379,"o":"m 85 168 q 144 143 119 168 q 168 83 168 118 q 160 50 168 67 q 143 17 153 33 l 85 -85 l 25 -85 l 54 4 q 15 35 31 14 q 0 83 0 56 q 24 143 0 118 q 85 168 49 168 m 294 168 q 355 143 331 168 q 379 83 379 118 q 371 50 379 67 q 354 17 363 33 l 294 -85 l 235 -85 l 264 4 q 225 35 240 14 q 210 83 210 56 q 235 143 210 118 q 294 168 260 168 z "},"^":{"ha":613,"x_min":0,"x_max":515,"o":"m 0 883 l 168 1053 l 347 1053 l 515 883 l 336 883 l 257 963 l 179 883 l 0 883 l 0 883 l 0 883 z "},"*":{"ha":342,"x_min":0,"x_max":244,"o":"m 97 800 l 97 882 l 25 840 l 0 885 l 71 926 l 0 967 l 25 1011 l 97 969 l 97 1053 l 147 1053 l 147 969 l 218 1011 l 244 967 l 172 926 l 244 885 l 218 840 l 147 882 l 147 800 l 97 800 l 97 800 l 97 800 z "},"!":{"ha":307,"x_min":0,"x_max":210,"o":"m 106 210 q 180 180 150 210 q 210 106 210 150 q 180 31 210 61 q 106 0 150 0 q 31 31 61 0 q 0 106 0 61 q 31 180 0 150 q 106 210 61 210 m 0 294 l 0 1053 l 210 1053 l 210 294 l 0 294 z "},"¡":{"ha":307,"x_min":0,"x_max":210,"o":"m 106 675 q 31 705 61 675 q 0 779 0 735 q 31 854 0 824 q 106 885 61 885 q 180 854 150 885 q 210 779 210 824 q 180 705 210 735 q 106 675 150 675 m 0 590 l 210 590 l 210 -168 l 0 -168 l 0 590 z "},"'":{"ha":265,"x_min":0,"x_max":168,"o":"m 85 1053 q 144 1028 119 1053 q 168 968 168 1003 q 160 935 168 951 q 143 901 153 918 l 85 800 l 25 800 l 54 889 q 15 919 31 899 q 0 968 0 940 q 24 1028 0 1003 q 85 1053 49 1053 z "},"’":{"ha":265,"x_min":0,"x_max":168,"o":"m 85 1053 q 144 1028 119 1053 q 168 968 168 1003 q 160 935 168 951 q 143 901 153 918 l 85 800 l 25 800 l 54 889 q 15 919 31 899 q 0 968 0 940 q 24 1028 0 1003 q 85 1053 49 1053 z "},"‘":{"ha":265,"x_min":0,"x_max":168,"o":"m 83 889 q 24 914 49 889 q 0 974 0 939 q 8 1007 0 990 q 25 1040 15 1024 l 83 1142 l 143 1142 l 114 1053 q 153 1022 138 1043 q 168 974 168 1001 q 144 914 168 939 q 83 889 119 889 z "},"`":{"ha":306,"x_min":0,"x_max":208,"o":"m 0 1053 l 168 1053 l 208 883 l 135 883 l 0 1053 l 0 1053 l 0 1053 z "},"´":{"ha":306,"x_min":0,"x_max":208,"o":"m 208 1053 l 208 1053 l 74 883 l 0 883 l 40 1053 l 208 1053 z "},"÷":{"ha":728,"x_min":0,"x_max":631,"o":"m 0 442 l 0 610 l 631 610 l 631 442 l 0 442 m 315 863 q 376 838 351 863 q 400 779 400 814 q 376 719 400 743 q 315 694 351 694 q 256 719 281 694 q 232 779 232 743 q 256 838 232 814 q 315 863 281 863 m 315 358 q 376 333 351 358 q 400 274 400 308 q 376 213 400 238 q 315 189 351 189 q 256 213 281 189 q 232 274 232 238 q 256 333 232 308 q 315 358 281 358 z "},"×":{"ha":574,"x_min":0,"x_max":476,"o":"m 357 288 l 238 407 l 119 288 l 0 407 l 119 526 l 0 644 l 119 764 l 238 644 l 357 764 l 476 644 l 357 526 l 476 407 l 357 288 l 357 288 l 357 288 z "},"=":{"ha":603,"x_min":0,"x_max":506,"o":"m 0 568 l 0 736 l 506 736 l 506 568 l 0 568 l 0 568 l 0 568 m 0 315 l 0 483 l 506 483 l 506 315 l 0 315 l 0 315 l 0 315 z "},"≤":{"ha":603,"x_min":0,"x_max":506,"o":"m 103 572 l 403 744 l 403 599 l 229 499 l 403 399 l 403 253 l 103 426 l 103 572 l 103 572 l 103 572 m 0 0 l 0 168 l 506 168 l 506 0 l 0 0 l 0 0 l 0 0 z "},"≥":{"ha":603,"x_min":0,"x_max":506,"o":"m 403 572 l 403 572 l 403 426 l 103 253 l 103 399 l 276 499 l 103 599 l 103 744 l 403 572 m 506 0 l 506 0 l 0 0 l 0 168 l 506 168 l 506 0 z "},"«":{"ha":576,"x_min":0,"x_max":479,"o":"m 0 526 l 139 768 l 285 768 l 146 526 l 285 285 l 139 285 l 0 526 l 0 526 l 0 526 m 194 526 l 333 768 l 479 768 l 340 526 l 479 285 l 333 285 l 194 526 l 194 526 l 194 526 z "},"»":{"ha":576,"x_min":0,"x_max":479,"o":"m 479 526 l 479 526 l 340 285 l 194 285 l 333 526 l 194 768 l 340 768 l 479 526 m 285 526 l 285 526 l 146 285 l 0 285 l 139 526 l 0 768 l 146 768 l 285 526 z "},"‹":{"ha":382,"x_min":0,"x_max":285,"o":"m 0 526 l 139 768 l 285 768 l 146 526 l 285 285 l 139 285 l 0 526 l 0 526 l 0 526 z "},"›":{"ha":382,"x_min":0,"x_max":285,"o":"m 285 526 l 285 526 l 146 285 l 0 285 l 139 526 l 0 768 l 146 768 l 285 526 z "},"⁄":{"ha":518,"x_min":0,"x_max":421,"o":"m 126 0 l 0 0 l 294 1053 l 421 1053 l 126 0 z "},"<":{"ha":397,"x_min":0,"x_max":300,"o":"m 0 599 l 300 772 l 300 626 l 126 526 l 300 425 l 300 281 l 0 453 l 0 599 l 0 599 l 0 599 z "},">":{"ha":397,"x_min":0,"x_max":300,"o":"m 300 599 l 300 599 l 300 453 l 0 281 l 0 425 l 174 526 l 0 626 l 0 772 l 300 599 z "},"±":{"ha":603,"x_min":0,"x_max":506,"o":"m 0 0 l 0 168 l 506 168 l 506 0 l 0 0 l 0 0 l 0 0 m 168 253 l 168 421 l 0 421 l 0 589 l 168 589 l 168 757 l 336 757 l 336 589 l 506 589 l 506 421 l 336 421 l 336 253 l 168 253 l 168 253 l 168 253 z "},"+":{"ha":603,"x_min":0,"x_max":506,"o":"m 168 274 l 168 442 l 0 442 l 0 610 l 168 610 l 168 779 l 336 779 l 336 610 l 506 610 l 506 442 l 336 442 l 336 274 l 168 274 l 168 274 l 168 274 z "},"~":{"ha":603,"x_min":0,"x_max":506,"o":"m 506 475 q 399 430 447 438 q 288 444 350 422 q 201 470 238 461 q 133 478 165 479 q 70 463 101 476 q 0 424 39 450 l 0 550 q 71 585 39 574 q 134 599 103 597 q 199 592 165 600 q 275 571 233 585 q 340 553 311 558 q 394 551 368 547 q 447 566 421 554 q 506 600 474 578 l 506 475 z "},"-":{"ha":603,"x_min":0,"x_max":506,"o":"m 0 442 l 0 610 l 506 610 l 506 442 l 0 442 l 0 442 l 0 442 z "},"­":{"ha":603,"x_min":0,"x_max":506,"o":"m 0 442 l 0 610 l 506 610 l 506 442 l 0 442 l 0 442 l 0 442 z "},"−":{"ha":603,"x_min":0,"x_max":506,"o":"m 0 442 l 0 610 l 506 610 l 506 442 l 0 442 l 0 442 l 0 442 z "},";":{"ha":265,"x_min":0,"x_max":168,"o":"m 85 168 q 144 144 119 168 q 168 85 168 119 q 160 51 168 68 q 143 18 153 33 l 85 -85 l 25 -85 l 54 6 q 15 36 31 15 q 0 85 0 57 q 24 144 0 119 q 85 168 49 168 m 85 610 q 144 585 119 610 q 168 526 168 561 q 144 466 168 490 q 85 442 119 442 q 24 466 49 442 q 0 526 0 490 q 24 585 0 561 q 85 610 49 610 z "},"‚":{"ha":265,"x_min":0,"x_max":168,"o":"m 85 168 q 144 143 119 168 q 168 83 168 118 q 160 50 168 67 q 143 17 153 33 l 85 -85 l 25 -85 l 54 4 q 15 35 31 14 q 0 83 0 56 q 24 143 0 118 q 85 168 49 168 z "},":":{"ha":265,"x_min":0,"x_max":168,"o":"m 85 610 q 144 585 119 610 q 168 526 168 561 q 144 466 168 490 q 85 442 119 442 q 24 466 49 442 q 0 526 0 490 q 24 585 0 561 q 85 610 49 610 m 85 168 q 144 144 119 168 q 168 85 168 119 q 144 24 168 49 q 85 0 119 0 q 24 24 49 0 q 0 85 0 49 q 24 144 0 119 q 85 168 49 168 z "},".":{"ha":265,"x_min":0,"x_max":168,"o":"m 85 168 q 144 144 119 168 q 168 85 168 119 q 144 24 168 49 q 85 0 119 0 q 24 24 49 0 q 0 85 0 49 q 24 144 0 119 q 85 168 49 168 z "},",":{"ha":265,"x_min":0,"x_max":168,"o":"m 85 168 q 144 144 119 168 q 168 85 168 119 q 160 51 168 68 q 143 18 153 33 l 85 -85 l 25 -85 l 54 6 q 15 36 31 15 q 0 85 0 57 q 24 144 0 119 q 85 168 49 168 z "},"_":{"ha":728,"x_min":0,"x_max":631,"o":"m 0 -168 l 0 -42 l 631 -42 l 631 -168 l 0 -168 l 0 -168 l 0 -168 z "},"W":{"ha":1308,"x_min":0,"x_max":1211,"o":"m 963 0 l 746 0 l 606 594 l 465 0 l 249 0 l 0 1053 l 217 1053 l 357 457 l 497 1053 l 714 1053 l 854 457 l 994 1053 l 1211 1053 l 963 0 l 963 0 l 963 0 z "},"Q":{"ha":1150,"x_min":0,"x_max":1053,"o":"m 526 1053 q 731 1011 635 1053 q 898 898 826 969 q 1011 731 969 826 q 1053 526 1053 635 q 1036 393 1053 457 q 988 273 1019 329 q 913 169 957 217 q 817 88 869 122 l 904 -106 l 694 -106 l 640 13 q 526 0 586 0 q 322 42 418 0 q 155 155 226 83 q 42 322 83 226 q 0 526 0 418 q 42 731 0 635 q 155 898 83 826 q 322 1011 226 969 q 526 1053 418 1053 m 715 313 l 728 283 q 811 390 781 328 q 842 526 842 453 q 817 649 842 592 q 749 749 792 707 q 649 817 707 792 q 526 842 592 842 q 403 817 461 842 q 303 749 346 792 q 235 649 260 707 q 210 526 210 592 q 235 403 210 461 q 303 303 260 346 q 403 235 346 260 q 526 210 461 210 q 539 210 533 210 q 551 211 544 211 l 506 313 l 715 313 z "},"V":{"ha":1082,"x_min":0,"x_max":985,"o":"m 604 0 l 381 0 l 0 1053 l 224 1053 l 492 310 l 761 1053 l 985 1053 l 604 0 l 604 0 l 604 0 z "},"O":{"ha":1150,"x_min":0,"x_max":1053,"o":"m 526 1053 q 731 1011 635 1053 q 898 898 826 969 q 1011 731 969 826 q 1053 526 1053 635 q 1011 322 1053 418 q 898 155 969 226 q 731 42 826 83 q 526 0 635 0 q 322 42 418 0 q 155 155 226 83 q 42 322 83 226 q 0 526 0 418 q 42 731 0 635 q 155 898 83 826 q 322 1011 226 969 q 526 1053 418 1053 m 526 842 q 403 817 461 842 q 303 749 346 792 q 235 649 260 707 q 210 526 210 592 q 235 403 210 461 q 303 303 260 346 q 403 235 346 260 q 526 210 461 210 q 649 235 592 210 q 749 303 707 260 q 817 403 792 346 q 842 526 842 461 q 817 649 842 592 q 749 749 792 707 q 649 817 707 792 q 526 842 592 842 z "},"Z":{"ha":932,"x_min":0,"x_max":835,"o":"m 0 0 l 474 842 l 42 842 l 42 1053 l 835 1053 l 360 210 l 792 210 l 792 0 l 0 0 l 0 0 l 0 0 z "},"N":{"ha":974,"x_min":0,"x_max":876,"o":"m 667 350 l 667 1053 l 876 1053 l 876 0 l 632 0 l 210 701 l 210 0 l 0 0 l 0 1053 l 246 1053 l 667 350 l 667 350 l 667 350 z "},"C":{"ha":986,"x_min":0,"x_max":889,"o":"m 526 1053 q 725 1014 632 1053 q 889 907 818 975 l 740 757 q 644 819 699 797 q 526 842 589 842 q 403 817 461 842 q 303 749 346 792 q 235 649 260 707 q 210 526 210 592 q 235 403 210 461 q 303 303 260 346 q 403 235 346 260 q 526 211 461 211 q 644 233 589 211 q 740 294 699 256 l 889 146 q 725 39 818 78 q 526 0 632 0 q 322 42 418 0 q 155 155 226 83 q 42 322 83 226 q 0 526 0 418 q 42 731 0 635 q 155 898 83 826 q 322 1011 226 969 q 526 1053 418 1053 z "},"X":{"ha":974,"x_min":0,"x_max":876,"o":"m 246 0 l 0 0 l 315 526 l 0 1053 l 246 1053 l 439 731 l 631 1053 l 876 1053 l 561 526 l 876 0 l 631 0 l 439 321 l 246 0 l 246 0 l 246 0 z "},"A":{"ha":1082,"x_min":0,"x_max":985,"o":"m 985 0 l 761 0 l 654 294 l 331 294 l 224 0 l 0 0 l 381 1053 l 604 1053 l 985 0 l 985 0 l 985 0 m 578 506 l 492 743 l 407 506 l 578 506 l 578 506 l 578 506 z "},"U":{"ha":900,"x_min":0,"x_max":803,"o":"m 803 401 q 772 245 803 318 q 685 117 740 172 q 558 31 631 63 q 401 0 485 0 q 245 31 318 0 q 117 117 172 63 q 31 245 63 172 q 0 401 0 318 l 0 1053 l 210 1053 l 210 401 q 225 326 210 361 q 266 266 240 292 q 326 225 292 240 q 401 210 361 210 q 476 225 440 210 q 537 266 511 240 q 578 326 563 292 q 593 401 593 361 l 593 1053 l 803 1053 l 803 401 z "},"K":{"ha":942,"x_min":0,"x_max":844,"o":"m 0 0 l 0 1053 l 210 1053 l 210 622 l 539 1053 l 803 1053 l 422 554 l 844 0 l 581 0 l 290 381 l 210 276 l 210 0 l 0 0 l 0 0 l 0 0 z "},"D":{"ha":918,"x_min":0,"x_max":821,"o":"m 0 0 l 0 1053 l 294 1053 q 499 1011 403 1053 q 666 898 594 969 q 779 731 738 826 q 821 526 821 635 q 779 322 821 418 q 666 155 738 226 q 499 42 594 83 q 294 0 403 0 l 0 0 m 210 211 l 294 211 q 417 235 360 211 q 517 303 475 260 q 585 403 560 346 q 610 526 610 461 q 585 649 610 592 q 517 749 560 707 q 417 817 475 792 q 294 842 360 842 l 210 842 l 210 211 z "},"Y":{"ha":857,"x_min":0,"x_max":760,"o":"m 275 0 l 275 501 l 0 1053 l 235 1053 l 381 761 l 525 1053 l 760 1053 l 485 501 l 485 0 l 275 0 l 275 0 l 275 0 z "},"R":{"ha":749,"x_min":0,"x_max":672,"o":"m 0 0 l 0 1053 l 315 1053 q 438 1028 381 1053 q 538 960 496 1003 q 606 859 581 917 q 631 736 631 801 q 585 572 631 646 q 465 458 540 499 l 672 0 l 442 0 l 251 421 l 210 421 l 210 0 l 0 0 m 210 632 l 315 632 q 390 663 360 632 q 421 736 421 693 q 390 811 421 781 q 315 842 360 842 l 210 842 l 210 632 z "},"S":{"ha":776,"x_min":0,"x_max":679,"o":"m 240 429 q 145 471 189 442 q 69 540 101 500 q 18 631 36 581 q 0 736 0 681 q 25 859 0 801 q 92 960 50 917 q 192 1028 135 1003 q 315 1053 250 1053 q 490 1024 407 1053 q 639 942 572 994 l 488 790 q 408 828 451 814 q 315 842 364 842 q 240 811 271 842 q 210 736 210 781 q 235 668 210 700 q 297 632 260 640 q 375 621 335 624 q 495 594 439 618 q 592 531 551 571 q 656 437 632 492 q 679 315 679 382 q 654 192 679 250 q 587 92 629 135 q 487 25 544 50 q 364 0 429 0 q 164 39 257 0 q 0 146 71 78 l 149 294 q 247 232 192 254 q 364 210 301 210 q 438 240 407 210 q 468 315 468 271 q 458 361 468 339 q 426 396 449 383 q 383 412 407 407 q 335 419 360 417 q 285 423 310 421 q 240 429 260 425 z "},"T":{"ha":900,"x_min":0,"x_max":803,"o":"m 803 842 l 507 842 l 507 0 l 296 0 l 296 842 l 0 842 l 0 1053 l 803 1053 l 803 842 l 803 842 l 803 842 z "},"P":{"ha":707,"x_min":0,"x_max":610,"o":"m 0 0 l 0 1053 l 294 1053 q 417 1028 360 1053 q 517 960 475 1003 q 585 859 560 917 q 610 736 610 801 q 585 613 610 671 q 518 513 561 556 q 418 446 475 471 q 296 421 361 421 l 210 421 l 210 0 l 0 0 m 210 632 l 294 632 q 369 663 339 632 q 400 736 400 693 q 369 811 400 781 q 294 842 339 842 l 210 842 l 210 632 z "},"B":{"ha":774,"x_min":0,"x_max":676,"o":"m 294 1053 q 417 1028 360 1053 q 517 960 475 1003 q 585 859 560 917 q 610 736 610 801 q 596 644 610 688 q 558 563 582 600 q 644 454 613 518 q 676 315 676 390 q 651 192 676 250 q 584 92 626 135 q 484 25 542 50 q 361 0 426 0 l 0 0 l 0 1053 l 294 1053 m 210 211 l 361 211 q 436 241 406 211 q 467 315 467 271 q 436 390 467 360 q 361 421 406 421 l 210 421 l 210 211 m 210 632 l 294 632 q 369 663 339 632 q 400 736 400 693 q 369 811 400 781 q 294 842 339 842 l 210 842 l 210 632 z "},"F":{"ha":732,"x_min":0,"x_max":635,"o":"m 0 0 l 0 1053 l 635 1053 l 635 842 l 210 842 l 210 632 l 635 632 l 635 421 l 210 421 l 210 0 l 0 0 l 0 0 l 0 0 z "},"E":{"ha":732,"x_min":0,"x_max":635,"o":"m 0 0 l 0 1053 l 635 1053 l 635 842 l 210 842 l 210 632 l 635 632 l 635 421 l 210 421 l 210 211 l 635 211 l 635 0 l 0 0 l 0 0 l 0 0 z "},"L":{"ha":690,"x_min":0,"x_max":593,"o":"m 0 0 l 0 1053 l 210 1053 l 210 211 l 593 211 l 593 0 l 0 0 l 0 0 l 0 0 z "},"J":{"ha":807,"x_min":0,"x_max":710,"o":"m 710 401 q 678 245 710 318 q 592 117 647 172 q 465 31 538 63 q 308 0 392 0 q 135 39 215 0 q 0 144 56 78 l 150 294 q 218 234 176 257 q 308 211 260 211 q 383 226 347 211 q 444 267 418 240 q 485 327 469 293 q 500 401 500 361 l 500 1053 l 710 1053 l 710 401 z "},"H":{"ha":900,"x_min":0,"x_max":803,"o":"m 0 0 l 0 1053 l 210 1053 l 210 632 l 593 632 l 593 1053 l 803 1053 l 803 0 l 593 0 l 593 421 l 210 421 l 210 0 l 0 0 l 0 0 l 0 0 z "},"I":{"ha":307,"x_min":0,"x_max":210,"o":"m 0 0 l 0 1053 l 210 1053 l 210 0 l 0 0 l 0 0 l 0 0 z "},"G":{"ha":1150,"x_min":0,"x_max":1053,"o":"m 526 1053 q 725 1014 632 1053 q 889 907 818 975 l 740 757 q 644 819 699 797 q 526 842 589 842 q 403 817 461 842 q 303 749 346 792 q 235 649 260 707 q 210 526 210 592 q 235 403 210 461 q 303 303 260 346 q 403 235 346 260 q 526 210 461 210 q 669 244 604 210 q 779 336 735 278 l 526 336 l 526 547 l 631 547 l 842 547 l 1051 547 q 1052 537 1051 542 q 1053 526 1053 532 q 1011 322 1053 418 q 898 155 969 226 q 731 42 826 83 q 526 0 635 0 q 322 42 418 0 q 155 155 226 83 q 42 322 83 226 q 0 526 0 418 q 42 731 0 635 q 155 898 83 826 q 322 1011 226 969 q 526 1053 418 1053 z "},"a":{"ha":1082,"x_min":0,"x_max":985,"o":"m 985 0 l 761 0 l 654 294 l 331 294 l 224 0 l 0 0 l 381 1053 l 604 1053 l 985 0 l 985 0 l 985 0 m 578 506 l 492 743 l 407 506 l 578 506 l 578 506 l 578 506 z "},"b":{"ha":774,"x_min":0,"x_max":676,"o":"m 294 1053 q 417 1028 360 1053 q 517 960 475 1003 q 585 859 560 917 q 610 736 610 801 q 596 644 610 688 q 558 563 582 600 q 644 454 613 518 q 676 315 676 390 q 651 192 676 250 q 584 92 626 135 q 484 25 542 50 q 361 0 426 0 l 0 0 l 0 1053 l 294 1053 m 210 211 l 361 211 q 436 241 406 211 q 467 315 467 271 q 436 390 467 360 q 361 421 406 421 l 210 421 l 210 211 m 210 632 l 294 632 q 369 663 339 632 q 400 736 400 693 q 369 811 400 781 q 294 842 339 842 l 210 842 l 210 632 z "},"c":{"ha":986,"x_min":0,"x_max":889,"o":"m 526 1053 q 725 1014 632 1053 q 889 907 818 975 l 740 757 q 644 819 699 797 q 526 842 589 842 q 403 817 461 842 q 303 749 346 792 q 235 649 260 707 q 210 526 210 592 q 235 403 210 461 q 303 303 260 346 q 403 235 346 260 q 526 211 461 211 q 644 233 589 211 q 740 294 699 256 l 889 146 q 725 39 818 78 q 526 0 632 0 q 322 42 418 0 q 155 155 226 83 q 42 322 83 226 q 0 526 0 418 q 42 731 0 635 q 155 898 83 826 q 322 1011 226 969 q 526 1053 418 1053 z "},"d":{"ha":918,"x_min":0,"x_max":821,"o":"m 0 0 l 0 1053 l 294 1053 q 499 1011 403 1053 q 666 898 594 969 q 779 731 738 826 q 821 526 821 635 q 779 322 821 418 q 666 155 738 226 q 499 42 594 83 q 294 0 403 0 l 0 0 m 210 211 l 294 211 q 417 235 360 211 q 517 303 475 260 q 585 403 560 346 q 610 526 610 461 q 585 649 610 592 q 517 749 560 707 q 417 817 475 792 q 294 842 360 842 l 210 842 l 210 211 z "},"e":{"ha":732,"x_min":0,"x_max":635,"o":"m 0 0 l 0 1053 l 635 1053 l 635 842 l 210 842 l 210 632 l 635 632 l 635 421 l 210 421 l 210 211 l 635 211 l 635 0 l 0 0 l 0 0 l 0 0 z "},"f":{"ha":732,"x_min":0,"x_max":635,"o":"m 0 0 l 0 1053 l 635 1053 l 635 842 l 210 842 l 210 632 l 635 632 l 635 421 l 210 421 l 210 0 l 0 0 l 0 0 l 0 0 z "},"g":{"ha":1150,"x_min":0,"x_max":1053,"o":"m 526 1053 q 725 1014 632 1053 q 889 907 818 975 l 740 757 q 644 819 699 797 q 526 842 589 842 q 403 817 461 842 q 303 749 346 792 q 235 649 260 707 q 210 526 210 592 q 235 403 210 461 q 303 303 260 346 q 403 235 346 260 q 526 210 461 210 q 669 244 604 210 q 779 336 735 278 l 526 336 l 526 547 l 631 547 l 842 547 l 1051 547 q 1052 537 1051 542 q 1053 526 1053 532 q 1011 322 1053 418 q 898 155 969 226 q 731 42 826 83 q 526 0 635 0 q 322 42 418 0 q 155 155 226 83 q 42 322 83 226 q 0 526 0 418 q 42 731 0 635 q 155 898 83 826 q 322 1011 226 969 q 526 1053 418 1053 z "},"h":{"ha":900,"x_min":0,"x_max":803,"o":"m 0 0 l 0 1053 l 210 1053 l 210 632 l 593 632 l 593 1053 l 803 1053 l 803 0 l 593 0 l 593 421 l 210 421 l 210 0 l 0 0 l 0 0 l 0 0 z "},"i":{"ha":307,"x_min":0,"x_max":210,"o":"m 0 0 l 0 1053 l 210 1053 l 210 0 l 0 0 l 0 0 l 0 0 z "},"j":{"ha":807,"x_min":0,"x_max":710,"o":"m 710 401 q 678 245 710 318 q 592 117 647 172 q 465 31 538 63 q 308 0 392 0 q 135 39 215 0 q 0 144 56 78 l 150 294 q 218 234 176 257 q 308 211 260 211 q 383 226 347 211 q 444 267 418 240 q 485 327 469 293 q 500 401 500 361 l 500 1053 l 710 1053 l 710 401 z "},"k":{"ha":942,"x_min":0,"x_max":844,"o":"m 0 0 l 0 1053 l 210 1053 l 210 622 l 539 1053 l 803 1053 l 422 554 l 844 0 l 581 0 l 290 381 l 210 276 l 210 0 l 0 0 l 0 0 l 0 0 z "},"l":{"ha":690,"x_min":0,"x_max":593,"o":"m 0 0 l 0 1053 l 210 1053 l 210 211 l 593 211 l 593 0 l 0 0 l 0 0 l 0 0 z "},"m":{"ha":1165,"x_min":0,"x_max":1068,"o":"m 647 0 l 421 0 l 210 526 l 210 0 l 0 0 l 0 1053 l 0 1053 l 226 1053 l 535 283 l 842 1053 l 1068 1053 l 1068 1053 l 1068 0 l 858 0 l 858 526 l 647 0 l 647 0 l 647 0 z "},"n":{"ha":974,"x_min":0,"x_max":876,"o":"m 667 350 l 667 1053 l 876 1053 l 876 0 l 632 0 l 210 701 l 210 0 l 0 0 l 0 1053 l 246 1053 l 667 350 l 667 350 l 667 350 z "},"o":{"ha":1150,"x_min":0,"x_max":1053,"o":"m 526 1053 q 731 1011 635 1053 q 898 898 826 969 q 1011 731 969 826 q 1053 526 1053 635 q 1011 322 1053 418 q 898 155 969 226 q 731 42 826 83 q 526 0 635 0 q 322 42 418 0 q 155 155 226 83 q 42 322 83 226 q 0 526 0 418 q 42 731 0 635 q 155 898 83 826 q 322 1011 226 969 q 526 1053 418 1053 m 526 842 q 403 817 461 842 q 303 749 346 792 q 235 649 260 707 q 210 526 210 592 q 235 403 210 461 q 303 303 260 346 q 403 235 346 260 q 526 210 461 210 q 649 235 592 210 q 749 303 707 260 q 817 403 792 346 q 842 526 842 461 q 817 649 842 592 q 749 749 792 707 q 649 817 707 792 q 526 842 592 842 z "},"p":{"ha":707,"x_min":0,"x_max":610,"o":"m 0 0 l 0 1053 l 294 1053 q 417 1028 360 1053 q 517 960 475 1003 q 585 859 560 917 q 610 736 610 801 q 585 613 610 671 q 518 513 561 556 q 418 446 475 471 q 296 421 361 421 l 210 421 l 210 0 l 0 0 m 210 632 l 294 632 q 369 663 339 632 q 400 736 400 693 q 369 811 400 781 q 294 842 339 842 l 210 842 l 210 632 z "},"q":{"ha":1150,"x_min":0,"x_max":1053,"o":"m 526 1053 q 731 1011 635 1053 q 898 898 826 969 q 1011 731 969 826 q 1053 526 1053 635 q 1036 393 1053 457 q 988 273 1019 329 q 913 169 957 217 q 817 88 869 122 l 904 -106 l 694 -106 l 640 13 q 526 0 586 0 q 322 42 418 0 q 155 155 226 83 q 42 322 83 226 q 0 526 0 418 q 42 731 0 635 q 155 898 83 826 q 322 1011 226 969 q 526 1053 418 1053 m 715 313 l 728 283 q 811 390 781 328 q 842 526 842 453 q 817 649 842 592 q 749 749 792 707 q 649 817 707 792 q 526 842 592 842 q 403 817 461 842 q 303 749 346 792 q 235 649 260 707 q 210 526 210 592 q 235 403 210 461 q 303 303 260 346 q 403 235 346 260 q 526 210 461 210 q 539 210 533 210 q 551 211 544 211 l 506 313 l 715 313 z "},"r":{"ha":749,"x_min":0,"x_max":672,"o":"m 0 0 l 0 1053 l 315 1053 q 438 1028 381 1053 q 538 960 496 1003 q 606 859 581 917 q 631 736 631 801 q 585 572 631 646 q 465 458 540 499 l 672 0 l 442 0 l 251 421 l 210 421 l 210 0 l 0 0 m 210 632 l 315 632 q 390 663 360 632 q 421 736 421 693 q 390 811 421 781 q 315 842 360 842 l 210 842 l 210 632 z "},"s":{"ha":776,"x_min":0,"x_max":679,"o":"m 240 429 q 145 471 189 442 q 69 540 101 500 q 18 631 36 581 q 0 736 0 681 q 25 859 0 801 q 92 960 50 917 q 192 1028 135 1003 q 315 1053 250 1053 q 490 1024 407 1053 q 639 942 572 994 l 488 790 q 408 828 451 814 q 315 842 364 842 q 240 811 271 842 q 210 736 210 781 q 235 668 210 700 q 297 632 260 640 q 375 621 335 624 q 495 594 439 618 q 592 531 551 571 q 656 437 632 492 q 679 315 679 382 q 654 192 679 250 q 587 92 629 135 q 487 25 544 50 q 364 0 429 0 q 164 39 257 0 q 0 146 71 78 l 149 294 q 247 232 192 254 q 364 210 301 210 q 438 240 407 210 q 468 315 468 271 q 458 361 468 339 q 426 396 449 383 q 383 412 407 407 q 335 419 360 417 q 285 423 310 421 q 240 429 260 425 z "},"t":{"ha":900,"x_min":0,"x_max":803,"o":"m 803 842 l 507 842 l 507 0 l 296 0 l 296 842 l 0 842 l 0 1053 l 803 1053 l 803 842 l 803 842 l 803 842 z "},"u":{"ha":900,"x_min":0,"x_max":803,"o":"m 803 401 q 772 245 803 318 q 685 117 740 172 q 558 31 631 63 q 401 0 485 0 q 245 31 318 0 q 117 117 172 63 q 31 245 63 172 q 0 401 0 318 l 0 1053 l 210 1053 l 210 401 q 225 326 210 361 q 266 266 240 292 q 326 225 292 240 q 401 210 361 210 q 476 225 440 210 q 537 266 511 240 q 578 326 563 292 q 593 401 593 361 l 593 1053 l 803 1053 l 803 401 z "},"v":{"ha":1082,"x_min":0,"x_max":985,"o":"m 604 0 l 381 0 l 0 1053 l 224 1053 l 492 310 l 761 1053 l 985 1053 l 604 0 l 604 0 l 604 0 z "},"w":{"ha":1308,"x_min":0,"x_max":1211,"o":"m 963 0 l 746 0 l 606 594 l 465 0 l 249 0 l 0 1053 l 217 1053 l 357 457 l 497 1053 l 714 1053 l 854 457 l 994 1053 l 1211 1053 l 963 0 l 963 0 l 963 0 z "},"x":{"ha":974,"x_min":0,"x_max":876,"o":"m 246 0 l 0 0 l 315 526 l 0 1053 l 246 1053 l 439 731 l 631 1053 l 876 1053 l 561 526 l 876 0 l 631 0 l 439 321 l 246 0 l 246 0 l 246 0 z "},"y":{"ha":857,"x_min":0,"x_max":760,"o":"m 275 0 l 275 501 l 0 1053 l 235 1053 l 381 761 l 525 1053 l 760 1053 l 485 501 l 485 0 l 275 0 l 275 0 l 275 0 z "},"z":{"ha":932,"x_min":0,"x_max":835,"o":"m 0 0 l 474 842 l 42 842 l 42 1053 l 835 1053 l 360 210 l 792 210 l 792 0 l 0 0 l 0 0 l 0 0 z "},"$":{"ha":776,"x_min":0,"x_max":679,"o":"m 240 429 q 145 471 189 442 q 69 540 101 500 q 18 631 36 581 q 0 736 0 681 q 19 846 0 794 q 73 938 39 897 q 154 1007 107 979 q 256 1046 201 1035 l 256 1221 l 424 1221 l 424 1042 q 538 1003 485 1029 q 639 942 592 978 l 488 790 q 408 828 451 814 q 315 842 364 842 q 240 811 271 842 q 210 736 210 781 q 235 668 210 700 q 297 632 260 640 q 375 621 335 624 q 495 594 439 618 q 592 531 551 571 q 656 437 632 492 q 679 315 679 382 q 660 206 679 258 q 606 113 640 154 q 525 44 572 72 q 424 6 478 15 l 424 -168 l 256 -168 l 256 11 q 117 61 181 26 q 0 146 53 96 l 149 294 q 247 232 192 254 q 364 210 301 210 q 438 240 407 210 q 468 314 468 271 q 458 361 468 339 q 426 396 449 383 q 383 412 407 407 q 335 419 360 417 q 285 423 310 421 q 240 429 260 425 z "},"Ä":{"ha":1082,"x_min":0,"x_max":985,"o":"m 985 0 l 761 0 l 654 294 l 331 294 l 224 0 l 0 0 l 381 1053 l 604 1053 l 985 0 m 629 1303 q 688 1278 664 1303 q 713 1218 713 1254 q 688 1159 713 1183 q 629 1135 664 1135 q 569 1159 593 1135 q 544 1218 544 1183 q 569 1278 544 1254 q 629 1303 593 1303 m 356 1303 q 415 1278 390 1303 q 439 1218 439 1254 q 415 1159 439 1183 q 356 1135 390 1135 q 295 1159 319 1135 q 271 1218 271 1183 q 295 1278 271 1254 q 356 1303 319 1303 m 578 506 l 492 743 l 407 506 l 578 506 z "},"˙":{"ha":265,"x_min":0,"x_max":168,"o":"m 85 1221 q 144 1197 119 1221 q 168 1138 168 1172 q 144 1077 168 1101 q 85 1053 119 1053 q 24 1077 49 1053 q 0 1138 0 1101 q 24 1197 0 1172 q 85 1221 49 1221 z "},"Á":{"ha":1082,"x_min":0,"x_max":985,"o":"m 985 0 l 761 0 l 654 294 l 331 294 l 224 0 l 0 0 l 381 1053 l 604 1053 l 985 0 m 596 1304 l 461 1135 l 388 1135 l 428 1304 l 596 1304 m 578 506 l 492 743 l 407 506 l 578 506 z "},"À":{"ha":1082,"x_min":0,"x_max":985,"o":"m 985 0 l 761 0 l 654 294 l 331 294 l 224 0 l 0 0 l 381 1053 l 604 1053 l 985 0 m 388 1304 l 556 1304 l 596 1135 l 522 1135 l 388 1304 m 578 506 l 492 743 l 407 506 l 578 506 z "},"Ã":{"ha":1082,"x_min":0,"x_max":985,"o":"m 985 0 l 761 0 l 654 294 l 331 294 l 224 0 l 0 0 l 381 1053 l 604 1053 l 985 0 m 731 1174 q 631 1136 678 1142 q 526 1150 585 1131 q 444 1175 479 1167 q 379 1183 410 1183 q 319 1172 349 1183 q 254 1138 289 1161 l 254 1260 q 319 1291 289 1281 q 380 1302 350 1301 q 442 1295 410 1303 q 515 1274 475 1288 q 576 1256 549 1261 q 629 1254 604 1251 q 678 1267 654 1257 q 731 1297 703 1278 l 731 1174 m 578 506 l 492 743 l 407 506 l 578 506 z "},"ˆ":{"ha":613,"x_min":0,"x_max":515,"o":"m 0 1053 l 168 1221 l 347 1221 l 515 1053 l 336 1053 l 257 1132 l 179 1053 l 0 1053 z "},"ˇ":{"ha":613,"x_min":0,"x_max":515,"o":"m 179 1221 l 257 1142 l 336 1221 l 515 1221 l 347 1053 l 168 1053 l 0 1221 l 179 1221 z "},"Â":{"ha":1082,"x_min":0,"x_max":985,"o":"m 985 0 l 761 0 l 654 294 l 331 294 l 224 0 l 0 0 l 381 1053 l 604 1053 l 985 0 m 235 1135 l 403 1303 l 582 1303 l 750 1135 l 571 1135 l 492 1214 l 414 1135 l 235 1135 m 578 506 l 492 743 l 407 506 l 578 506 z "},"È":{"ha":732,"x_min":0,"x_max":635,"o":"m 0 0 l 0 1053 l 635 1053 l 635 842 l 210 842 l 210 632 l 635 632 l 635 421 l 210 421 l 210 211 l 635 211 l 635 0 l 0 0 m 213 1304 l 381 1304 l 421 1135 l 347 1135 l 213 1304 z "},"É":{"ha":732,"x_min":0,"x_max":635,"o":"m 0 0 l 0 1053 l 635 1053 l 635 842 l 210 842 l 210 632 l 635 632 l 635 421 l 210 421 l 210 211 l 635 211 l 635 0 l 0 0 m 421 1304 l 286 1135 l 213 1135 l 253 1304 l 421 1304 z "},"Ê":{"ha":732,"x_min":0,"x_max":635,"o":"m 0 0 l 0 1053 l 635 1053 l 635 842 l 210 842 l 210 632 l 635 632 l 635 421 l 210 421 l 210 211 l 635 211 l 635 0 l 0 0 m 60 1135 l 228 1303 l 407 1303 l 575 1135 l 396 1135 l 317 1214 l 239 1135 l 60 1135 z "},"Ë":{"ha":732,"x_min":0,"x_max":635,"o":"m 0 0 l 0 1053 l 635 1053 l 635 842 l 210 842 l 210 632 l 635 632 l 635 421 l 210 421 l 210 211 l 635 211 l 635 0 l 0 0 m 454 1303 q 513 1278 489 1303 q 538 1218 538 1254 q 513 1159 538 1183 q 454 1135 489 1135 q 394 1159 418 1135 q 369 1218 369 1183 q 394 1278 369 1254 q 454 1303 418 1303 m 181 1303 q 240 1278 215 1303 q 264 1218 264 1254 q 240 1159 264 1183 q 181 1135 215 1135 q 120 1159 144 1135 q 96 1218 96 1183 q 120 1278 96 1254 q 181 1303 144 1303 z "},"Ì":{"ha":307,"x_min":0,"x_max":210,"o":"m 0 0 l 0 1053 l 210 1053 l 210 0 l 0 0 m 0 1304 l 168 1304 l 208 1135 l 135 1135 l 0 1304 z "},"Í":{"ha":307,"x_min":0,"x_max":210,"o":"m 0 0 l 0 1053 l 210 1053 l 210 0 l 0 0 m 75 1135 l 1 1135 l 42 1304 l 210 1304 l 75 1135 z "},"Î":{"ha":613,"x_min":0,"x_max":515,"o":"m 153 0 l 153 1053 l 363 1053 l 363 0 l 153 0 m 0 1135 l 168 1303 l 347 1303 l 515 1135 l 336 1135 l 257 1214 l 179 1135 l 0 1135 z "},"Ï":{"ha":539,"x_min":0,"x_max":442,"o":"m 117 0 l 117 1053 l 326 1053 l 326 0 l 117 0 m 358 1303 q 417 1278 393 1303 q 442 1218 442 1254 q 417 1159 442 1183 q 358 1135 393 1135 q 298 1159 322 1135 q 274 1218 274 1183 q 298 1278 274 1254 q 358 1303 322 1303 m 85 1303 q 144 1278 119 1303 q 168 1218 168 1254 q 144 1159 168 1183 q 85 1135 119 1135 q 24 1159 49 1135 q 0 1218 0 1183 q 24 1278 0 1254 q 85 1303 49 1303 z "},"Ñ":{"ha":974,"x_min":0,"x_max":876,"o":"m 667 350 l 667 1053 l 876 1053 l 876 0 l 632 0 l 210 701 l 210 0 l 0 0 l 0 1053 l 246 1053 l 667 350 m 676 1174 q 577 1136 624 1142 q 472 1150 531 1131 q 390 1175 425 1167 q 325 1183 356 1183 q 265 1172 294 1183 q 200 1138 235 1161 l 200 1260 q 265 1291 235 1281 q 326 1302 296 1301 q 388 1295 356 1303 q 461 1274 421 1288 q 522 1256 494 1261 q 575 1254 550 1251 q 624 1267 600 1257 q 676 1297 649 1278 l 676 1174 z "},"Ò":{"ha":1150,"x_min":0,"x_max":1053,"o":"m 526 1053 q 731 1011 635 1053 q 898 898 826 969 q 1011 731 969 826 q 1053 526 1053 635 q 1011 322 1053 418 q 898 155 969 226 q 731 42 826 83 q 526 0 635 0 q 322 42 418 0 q 155 155 226 83 q 42 322 83 226 q 0 526 0 418 q 42 731 0 635 q 155 898 83 826 q 322 1011 226 969 q 526 1053 418 1053 m 526 842 q 403 817 461 842 q 303 749 346 792 q 235 649 260 707 q 210 526 210 592 q 235 403 210 461 q 303 303 260 346 q 403 235 346 260 q 526 210 461 210 q 649 235 592 210 q 749 303 707 260 q 817 403 792 346 q 842 526 842 461 q 817 649 842 592 q 749 749 792 707 q 649 817 707 792 q 526 842 592 842 m 422 1304 l 590 1304 l 631 1135 l 557 1135 l 422 1304 z "},"Ó":{"ha":1150,"x_min":0,"x_max":1053,"o":"m 526 1053 q 731 1011 635 1053 q 898 898 826 969 q 1011 731 969 826 q 1053 526 1053 635 q 1011 322 1053 418 q 898 155 969 226 q 731 42 826 83 q 526 0 635 0 q 322 42 418 0 q 155 155 226 83 q 42 322 83 226 q 0 526 0 418 q 42 731 0 635 q 155 898 83 826 q 322 1011 226 969 q 526 1053 418 1053 m 526 842 q 403 817 461 842 q 303 749 346 792 q 235 649 260 707 q 210 526 210 592 q 235 403 210 461 q 303 303 260 346 q 403 235 346 260 q 526 210 461 210 q 649 235 592 210 q 749 303 707 260 q 817 403 792 346 q 842 526 842 461 q 817 649 842 592 q 749 749 792 707 q 649 817 707 792 q 526 842 592 842 m 631 1304 l 496 1135 l 422 1135 l 463 1304 l 631 1304 z "},"Ô":{"ha":1150,"x_min":0,"x_max":1053,"o":"m 526 1053 q 731 1011 635 1053 q 898 898 826 969 q 1011 731 969 826 q 1053 526 1053 635 q 1011 322 1053 418 q 898 155 969 226 q 731 42 826 83 q 526 0 635 0 q 322 42 418 0 q 155 155 226 83 q 42 322 83 226 q 0 526 0 418 q 42 731 0 635 q 155 898 83 826 q 322 1011 226 969 q 526 1053 418 1053 m 526 842 q 403 817 461 842 q 303 749 346 792 q 235 649 260 707 q 210 526 210 592 q 235 403 210 461 q 303 303 260 346 q 403 235 346 260 q 526 210 461 210 q 649 235 592 210 q 749 303 707 260 q 817 403 792 346 q 842 526 842 461 q 817 649 842 592 q 749 749 792 707 q 649 817 707 792 q 526 842 592 842 m 269 1135 l 438 1303 l 617 1303 l 785 1135 l 606 1135 l 526 1214 l 449 1135 l 269 1135 z "},"Õ":{"ha":1150,"x_min":0,"x_max":1053,"o":"m 526 1053 q 731 1011 635 1053 q 898 898 826 969 q 1011 731 969 826 q 1053 526 1053 635 q 1011 322 1053 418 q 898 155 969 226 q 731 42 826 83 q 526 0 635 0 q 322 42 418 0 q 155 155 226 83 q 42 322 83 226 q 0 526 0 418 q 42 731 0 635 q 155 898 83 826 q 322 1011 226 969 q 526 1053 418 1053 m 526 842 q 403 817 461 842 q 303 749 346 792 q 235 649 260 707 q 210 526 210 592 q 235 403 210 461 q 303 303 260 346 q 403 235 346 260 q 526 210 461 210 q 649 235 592 210 q 749 303 707 260 q 817 403 792 346 q 842 526 842 461 q 817 649 842 592 q 749 749 792 707 q 649 817 707 792 q 526 842 592 842 m 765 1174 q 666 1136 713 1142 q 561 1150 619 1131 q 479 1175 514 1167 q 414 1183 444 1183 q 353 1172 383 1183 q 289 1138 324 1161 l 289 1260 q 354 1291 324 1281 q 415 1302 385 1301 q 477 1295 444 1303 q 550 1274 510 1288 q 611 1256 583 1261 q 664 1254 639 1251 q 713 1267 689 1257 q 765 1297 738 1278 l 765 1174 z "},"Ö":{"ha":1150,"x_min":0,"x_max":1053,"o":"m 526 1053 q 731 1011 635 1053 q 898 898 826 969 q 1011 731 969 826 q 1053 526 1053 635 q 1011 322 1053 418 q 898 155 969 226 q 731 42 826 83 q 526 0 635 0 q 322 42 418 0 q 155 155 226 83 q 42 322 83 226 q 0 526 0 418 q 42 731 0 635 q 155 898 83 826 q 322 1011 226 969 q 526 1053 418 1053 m 526 842 q 403 817 461 842 q 303 749 346 792 q 235 649 260 707 q 210 526 210 592 q 235 403 210 461 q 303 303 260 346 q 403 235 346 260 q 526 210 461 210 q 649 235 592 210 q 749 303 707 260 q 817 403 792 346 q 842 526 842 461 q 817 649 842 592 q 749 749 792 707 q 649 817 707 792 q 526 842 592 842 m 390 1303 q 449 1278 425 1303 q 474 1218 474 1254 q 449 1159 474 1183 q 390 1135 425 1135 q 330 1159 354 1135 q 306 1218 306 1183 q 330 1278 306 1254 q 390 1303 354 1303 m 664 1303 q 723 1278 699 1303 q 747 1218 747 1254 q 723 1159 747 1183 q 664 1135 699 1135 q 603 1159 628 1135 q 579 1218 579 1183 q 603 1278 579 1254 q 664 1303 628 1303 z "},"Ù":{"ha":900,"x_min":0,"x_max":803,"o":"m 803 401 q 772 245 803 318 q 685 117 740 172 q 558 31 631 63 q 401 0 485 0 q 245 31 318 0 q 117 117 172 63 q 31 245 63 172 q 0 401 0 318 l 0 1053 l 210 1053 l 210 401 q 225 326 210 361 q 266 266 240 292 q 326 225 292 240 q 401 210 361 210 q 476 225 440 210 q 537 266 511 240 q 578 326 563 292 q 593 401 593 361 l 593 1053 l 803 1053 l 803 401 m 297 1304 l 465 1304 l 506 1135 l 432 1135 l 297 1304 z "},"Ú":{"ha":900,"x_min":0,"x_max":803,"o":"m 803 401 q 772 245 803 318 q 685 117 740 172 q 558 31 631 63 q 401 0 485 0 q 245 31 318 0 q 117 117 172 63 q 31 245 63 172 q 0 401 0 318 l 0 1053 l 210 1053 l 210 401 q 225 326 210 361 q 266 266 240 292 q 326 225 292 240 q 401 210 361 210 q 476 225 440 210 q 537 266 511 240 q 578 326 563 292 q 593 401 593 361 l 593 1053 l 803 1053 l 803 401 m 506 1304 l 371 1135 l 297 1135 l 338 1304 l 506 1304 z "},"Û":{"ha":900,"x_min":0,"x_max":803,"o":"m 803 401 q 772 245 803 318 q 685 117 740 172 q 558 31 631 63 q 401 0 485 0 q 245 31 318 0 q 117 117 172 63 q 31 245 63 172 q 0 401 0 318 l 0 1053 l 210 1053 l 210 401 q 225 326 210 361 q 266 266 240 292 q 326 225 292 240 q 401 210 361 210 q 476 225 440 210 q 537 266 511 240 q 578 326 563 292 q 593 401 593 361 l 593 1053 l 803 1053 l 803 401 m 144 1135 l 313 1303 l 492 1303 l 660 1135 l 481 1135 l 401 1214 l 324 1135 l 144 1135 z "},"Ü":{"ha":900,"x_min":0,"x_max":803,"o":"m 803 401 q 772 245 803 318 q 685 117 740 172 q 558 31 631 63 q 401 0 485 0 q 245 31 318 0 q 117 117 172 63 q 31 245 63 172 q 0 401 0 318 l 0 1053 l 210 1053 l 210 401 q 225 326 210 361 q 266 266 240 292 q 326 225 292 240 q 401 210 361 210 q 476 225 440 210 q 537 266 511 240 q 578 326 563 292 q 593 401 593 361 l 593 1053 l 803 1053 l 803 401 m 539 1303 q 598 1278 574 1303 q 622 1218 622 1254 q 598 1159 622 1183 q 539 1135 574 1135 q 478 1159 503 1135 q 454 1218 454 1183 q 478 1278 454 1254 q 539 1303 503 1303 m 265 1303 q 324 1278 300 1303 q 349 1218 349 1254 q 324 1159 349 1183 q 265 1135 300 1135 q 205 1159 229 1135 q 181 1218 181 1183 q 205 1278 181 1254 q 265 1303 229 1303 z "},"Ý":{"ha":857,"x_min":0,"x_max":760,"o":"m 275 0 l 275 501 l 0 1053 l 235 1053 l 381 761 l 525 1053 l 760 1053 l 485 501 l 485 0 l 275 0 m 483 1304 l 349 1135 l 275 1135 l 315 1304 l 483 1304 z "},"Š":{"ha":776,"x_min":0,"x_max":679,"o":"m 240 429 q 145 471 189 442 q 69 540 101 500 q 18 631 36 581 q 0 736 0 681 q 25 859 0 801 q 92 960 50 917 q 192 1028 135 1003 q 315 1053 250 1053 q 490 1024 407 1053 q 639 942 572 994 l 488 790 q 408 828 451 814 q 315 842 364 842 q 240 811 271 842 q 210 736 210 781 q 235 668 210 700 q 297 632 260 640 q 375 621 335 624 q 495 594 439 618 q 592 531 551 571 q 656 437 632 492 q 679 315 679 382 q 654 192 679 250 q 587 92 629 135 q 487 25 544 50 q 364 0 429 0 q 164 39 257 0 q 0 146 71 78 l 149 294 q 247 232 192 254 q 364 210 301 210 q 438 240 407 210 q 468 315 468 271 q 458 361 468 339 q 426 396 449 383 q 383 412 407 407 q 335 419 360 417 q 285 423 310 421 q 240 429 260 425 m 261 1303 l 339 1224 l 418 1303 l 597 1303 l 429 1135 l 250 1135 l 82 1303 l 261 1303 z "},"Ÿ":{"ha":857,"x_min":0,"x_max":760,"o":"m 275 0 l 275 501 l 0 1053 l 235 1053 l 381 761 l 525 1053 l 760 1053 l 485 501 l 485 0 l 275 0 m 517 1303 q 576 1278 551 1303 q 600 1218 600 1254 q 576 1159 600 1183 q 517 1135 551 1135 q 456 1159 481 1135 q 432 1218 432 1183 q 456 1278 432 1254 q 517 1303 481 1303 m 243 1303 q 302 1278 278 1303 q 326 1218 326 1254 q 302 1159 326 1183 q 243 1135 278 1135 q 183 1159 207 1135 q 158 1218 158 1183 q 183 1278 158 1254 q 243 1303 207 1303 z "},"Ž":{"ha":932,"x_min":0,"x_max":835,"o":"m 0 0 l 474 842 l 42 842 l 42 1053 l 835 1053 l 360 210 l 792 210 l 792 0 l 0 0 m 339 1303 l 417 1224 l 496 1303 l 675 1303 l 507 1135 l 328 1135 l 160 1303 l 339 1303 z "},"à":{"ha":1082,"x_min":0,"x_max":985,"o":"m 985 0 l 761 0 l 654 294 l 331 294 l 224 0 l 0 0 l 381 1053 l 604 1053 l 985 0 m 388 1304 l 556 1304 l 596 1135 l 522 1135 l 388 1304 m 578 506 l 492 743 l 407 506 l 578 506 z "},"á":{"ha":1082,"x_min":0,"x_max":985,"o":"m 985 0 l 761 0 l 654 294 l 331 294 l 224 0 l 0 0 l 381 1053 l 604 1053 l 985 0 m 596 1304 l 461 1135 l 388 1135 l 428 1304 l 596 1304 m 578 506 l 492 743 l 407 506 l 578 506 z "},"â":{"ha":1082,"x_min":0,"x_max":985,"o":"m 985 0 l 761 0 l 654 294 l 331 294 l 224 0 l 0 0 l 381 1053 l 604 1053 l 985 0 m 235 1135 l 403 1303 l 582 1303 l 750 1135 l 571 1135 l 492 1214 l 414 1135 l 235 1135 m 578 506 l 492 743 l 407 506 l 578 506 z "},"ã":{"ha":1082,"x_min":0,"x_max":985,"o":"m 985 0 l 761 0 l 654 294 l 331 294 l 224 0 l 0 0 l 381 1053 l 604 1053 l 985 0 m 731 1174 q 631 1136 678 1142 q 526 1150 585 1131 q 444 1175 479 1167 q 379 1183 410 1183 q 319 1172 349 1183 q 254 1138 289 1161 l 254 1260 q 319 1291 289 1281 q 380 1302 350 1301 q 442 1295 410 1303 q 515 1274 475 1288 q 576 1256 549 1261 q 629 1254 604 1251 q 678 1267 654 1257 q 731 1297 703 1278 l 731 1174 m 578 506 l 492 743 l 407 506 l 578 506 z "},"ä":{"ha":1082,"x_min":0,"x_max":985,"o":"m 985 0 l 761 0 l 654 294 l 331 294 l 224 0 l 0 0 l 381 1053 l 604 1053 l 985 0 m 629 1303 q 688 1278 664 1303 q 713 1218 713 1254 q 688 1159 713 1183 q 629 1135 664 1135 q 569 1159 593 1135 q 544 1218 544 1183 q 569 1278 544 1254 q 629 1303 593 1303 m 356 1303 q 415 1278 390 1303 q 439 1218 439 1254 q 415 1159 439 1183 q 356 1135 390 1135 q 295 1159 319 1135 q 271 1218 271 1183 q 295 1278 271 1254 q 356 1303 319 1303 m 578 506 l 492 743 l 407 506 l 578 506 z "},"è":{"ha":732,"x_min":0,"x_max":635,"o":"m 0 0 l 0 1053 l 635 1053 l 635 842 l 210 842 l 210 632 l 635 632 l 635 421 l 210 421 l 210 211 l 635 211 l 635 0 l 0 0 m 213 1304 l 381 1304 l 421 1135 l 347 1135 l 213 1304 z "},"é":{"ha":732,"x_min":0,"x_max":635,"o":"m 0 0 l 0 1053 l 635 1053 l 635 842 l 210 842 l 210 632 l 635 632 l 635 421 l 210 421 l 210 211 l 635 211 l 635 0 l 0 0 m 421 1304 l 286 1135 l 213 1135 l 253 1304 l 421 1304 z "},"ê":{"ha":732,"x_min":0,"x_max":635,"o":"m 0 0 l 0 1053 l 635 1053 l 635 842 l 210 842 l 210 632 l 635 632 l 635 421 l 210 421 l 210 211 l 635 211 l 635 0 l 0 0 m 60 1135 l 228 1303 l 407 1303 l 575 1135 l 396 1135 l 317 1214 l 239 1135 l 60 1135 z "},"ë":{"ha":732,"x_min":0,"x_max":635,"o":"m 0 0 l 0 1053 l 635 1053 l 635 842 l 210 842 l 210 632 l 635 632 l 635 421 l 210 421 l 210 211 l 635 211 l 635 0 l 0 0 m 454 1303 q 513 1278 489 1303 q 538 1218 538 1254 q 513 1159 538 1183 q 454 1135 489 1135 q 394 1159 418 1135 q 369 1218 369 1183 q 394 1278 369 1254 q 454 1303 418 1303 m 181 1303 q 240 1278 215 1303 q 264 1218 264 1254 q 240 1159 264 1183 q 181 1135 215 1135 q 120 1159 144 1135 q 96 1218 96 1183 q 120 1278 96 1254 q 181 1303 144 1303 z "},"ì":{"ha":307,"x_min":0,"x_max":210,"o":"m 0 0 l 0 1053 l 210 1053 l 210 0 l 0 0 m 0 1304 l 168 1304 l 208 1135 l 135 1135 l 0 1304 z "},"í":{"ha":307,"x_min":0,"x_max":210,"o":"m 0 0 l 0 1053 l 210 1053 l 210 0 l 0 0 m 75 1135 l 1 1135 l 42 1304 l 210 1304 l 75 1135 z "},"î":{"ha":613,"x_min":0,"x_max":515,"o":"m 153 0 l 153 1053 l 363 1053 l 363 0 l 153 0 m 0 1135 l 168 1303 l 347 1303 l 515 1135 l 336 1135 l 257 1214 l 179 1135 l 0 1135 z "},"ï":{"ha":539,"x_min":0,"x_max":442,"o":"m 117 0 l 117 1053 l 326 1053 l 326 0 l 117 0 m 358 1303 q 417 1278 393 1303 q 442 1218 442 1254 q 417 1159 442 1183 q 358 1135 393 1135 q 298 1159 322 1135 q 274 1218 274 1183 q 298 1278 274 1254 q 358 1303 322 1303 m 85 1303 q 144 1278 119 1303 q 168 1218 168 1254 q 144 1159 168 1183 q 85 1135 119 1135 q 24 1159 49 1135 q 0 1218 0 1183 q 24 1278 0 1254 q 85 1303 49 1303 z "},"ñ":{"ha":974,"x_min":0,"x_max":876,"o":"m 667 350 l 667 1053 l 876 1053 l 876 0 l 632 0 l 210 701 l 210 0 l 0 0 l 0 1053 l 246 1053 l 667 350 m 676 1174 q 577 1136 624 1142 q 472 1150 531 1131 q 390 1175 425 1167 q 325 1183 356 1183 q 265 1172 294 1183 q 200 1138 235 1161 l 200 1260 q 265 1291 235 1281 q 326 1302 296 1301 q 388 1295 356 1303 q 461 1274 421 1288 q 522 1256 494 1261 q 575 1254 550 1251 q 624 1267 600 1257 q 676 1297 649 1278 l 676 1174 z "},"ò":{"ha":1150,"x_min":0,"x_max":1053,"o":"m 526 1053 q 731 1011 635 1053 q 898 898 826 969 q 1011 731 969 826 q 1053 526 1053 635 q 1011 322 1053 418 q 898 155 969 226 q 731 42 826 83 q 526 0 635 0 q 322 42 418 0 q 155 155 226 83 q 42 322 83 226 q 0 526 0 418 q 42 731 0 635 q 155 898 83 826 q 322 1011 226 969 q 526 1053 418 1053 m 526 842 q 403 817 461 842 q 303 749 346 792 q 235 649 260 707 q 210 526 210 592 q 235 403 210 461 q 303 303 260 346 q 403 235 346 260 q 526 210 461 210 q 649 235 592 210 q 749 303 707 260 q 817 403 792 346 q 842 526 842 461 q 817 649 842 592 q 749 749 792 707 q 649 817 707 792 q 526 842 592 842 m 422 1304 l 590 1304 l 631 1135 l 557 1135 l 422 1304 z "},"ó":{"ha":1150,"x_min":0,"x_max":1053,"o":"m 526 1053 q 731 1011 635 1053 q 898 898 826 969 q 1011 731 969 826 q 1053 526 1053 635 q 1011 322 1053 418 q 898 155 969 226 q 731 42 826 83 q 526 0 635 0 q 322 42 418 0 q 155 155 226 83 q 42 322 83 226 q 0 526 0 418 q 42 731 0 635 q 155 898 83 826 q 322 1011 226 969 q 526 1053 418 1053 m 526 842 q 403 817 461 842 q 303 749 346 792 q 235 649 260 707 q 210 526 210 592 q 235 403 210 461 q 303 303 260 346 q 403 235 346 260 q 526 210 461 210 q 649 235 592 210 q 749 303 707 260 q 817 403 792 346 q 842 526 842 461 q 817 649 842 592 q 749 749 792 707 q 649 817 707 792 q 526 842 592 842 m 631 1304 l 496 1135 l 422 1135 l 463 1304 l 631 1304 z "},"ô":{"ha":1150,"x_min":0,"x_max":1053,"o":"m 526 1053 q 731 1011 635 1053 q 898 898 826 969 q 1011 731 969 826 q 1053 526 1053 635 q 1011 322 1053 418 q 898 155 969 226 q 731 42 826 83 q 526 0 635 0 q 322 42 418 0 q 155 155 226 83 q 42 322 83 226 q 0 526 0 418 q 42 731 0 635 q 155 898 83 826 q 322 1011 226 969 q 526 1053 418 1053 m 526 842 q 403 817 461 842 q 303 749 346 792 q 235 649 260 707 q 210 526 210 592 q 235 403 210 461 q 303 303 260 346 q 403 235 346 260 q 526 210 461 210 q 649 235 592 210 q 749 303 707 260 q 817 403 792 346 q 842 526 842 461 q 817 649 842 592 q 749 749 792 707 q 649 817 707 792 q 526 842 592 842 m 269 1135 l 438 1303 l 617 1303 l 785 1135 l 606 1135 l 526 1214 l 449 1135 l 269 1135 z "},"õ":{"ha":1150,"x_min":0,"x_max":1053,"o":"m 526 1053 q 731 1011 635 1053 q 898 898 826 969 q 1011 731 969 826 q 1053 526 1053 635 q 1011 322 1053 418 q 898 155 969 226 q 731 42 826 83 q 526 0 635 0 q 322 42 418 0 q 155 155 226 83 q 42 322 83 226 q 0 526 0 418 q 42 731 0 635 q 155 898 83 826 q 322 1011 226 969 q 526 1053 418 1053 m 526 842 q 403 817 461 842 q 303 749 346 792 q 235 649 260 707 q 210 526 210 592 q 235 403 210 461 q 303 303 260 346 q 403 235 346 260 q 526 210 461 210 q 649 235 592 210 q 749 303 707 260 q 817 403 792 346 q 842 526 842 461 q 817 649 842 592 q 749 749 792 707 q 649 817 707 792 q 526 842 592 842 m 765 1174 q 666 1136 713 1142 q 561 1150 619 1131 q 479 1175 514 1167 q 414 1183 444 1183 q 353 1172 383 1183 q 289 1138 324 1161 l 289 1260 q 354 1291 324 1281 q 415 1302 385 1301 q 477 1295 444 1303 q 550 1274 510 1288 q 611 1256 583 1261 q 664 1254 639 1251 q 713 1267 689 1257 q 765 1297 738 1278 l 765 1174 z "},"ö":{"ha":1150,"x_min":0,"x_max":1053,"o":"m 526 1053 q 731 1011 635 1053 q 898 898 826 969 q 1011 731 969 826 q 1053 526 1053 635 q 1011 322 1053 418 q 898 155 969 226 q 731 42 826 83 q 526 0 635 0 q 322 42 418 0 q 155 155 226 83 q 42 322 83 226 q 0 526 0 418 q 42 731 0 635 q 155 898 83 826 q 322 1011 226 969 q 526 1053 418 1053 m 526 842 q 403 817 461 842 q 303 749 346 792 q 235 649 260 707 q 210 526 210 592 q 235 403 210 461 q 303 303 260 346 q 403 235 346 260 q 526 210 461 210 q 649 235 592 210 q 749 303 707 260 q 817 403 792 346 q 842 526 842 461 q 817 649 842 592 q 749 749 792 707 q 649 817 707 792 q 526 842 592 842 m 390 1303 q 449 1278 425 1303 q 474 1218 474 1254 q 449 1159 474 1183 q 390 1135 425 1135 q 330 1159 354 1135 q 306 1218 306 1183 q 330 1278 306 1254 q 390 1303 354 1303 m 664 1303 q 723 1278 699 1303 q 747 1218 747 1254 q 723 1159 747 1183 q 664 1135 699 1135 q 603 1159 628 1135 q 579 1218 579 1183 q 603 1278 579 1254 q 664 1303 628 1303 z "},"ù":{"ha":900,"x_min":0,"x_max":803,"o":"m 803 401 q 772 245 803 318 q 685 117 740 172 q 558 31 631 63 q 401 0 485 0 q 245 31 318 0 q 117 117 172 63 q 31 245 63 172 q 0 401 0 318 l 0 1053 l 210 1053 l 210 401 q 225 326 210 361 q 266 266 240 292 q 326 225 292 240 q 401 210 361 210 q 476 225 440 210 q 537 266 511 240 q 578 326 563 292 q 593 401 593 361 l 593 1053 l 803 1053 l 803 401 m 297 1304 l 465 1304 l 506 1135 l 432 1135 l 297 1304 z "},"ú":{"ha":900,"x_min":0,"x_max":803,"o":"m 803 401 q 772 245 803 318 q 685 117 740 172 q 558 31 631 63 q 401 0 485 0 q 245 31 318 0 q 117 117 172 63 q 31 245 63 172 q 0 401 0 318 l 0 1053 l 210 1053 l 210 401 q 225 326 210 361 q 266 266 240 292 q 326 225 292 240 q 401 210 361 210 q 476 225 440 210 q 537 266 511 240 q 578 326 563 292 q 593 401 593 361 l 593 1053 l 803 1053 l 803 401 m 506 1304 l 371 1135 l 297 1135 l 338 1304 l 506 1304 z "},"û":{"ha":900,"x_min":0,"x_max":803,"o":"m 803 401 q 772 245 803 318 q 685 117 740 172 q 558 31 631 63 q 401 0 485 0 q 245 31 318 0 q 117 117 172 63 q 31 245 63 172 q 0 401 0 318 l 0 1053 l 210 1053 l 210 401 q 225 326 210 361 q 266 266 240 292 q 326 225 292 240 q 401 210 361 210 q 476 225 440 210 q 537 266 511 240 q 578 326 563 292 q 593 401 593 361 l 593 1053 l 803 1053 l 803 401 m 144 1135 l 313 1303 l 492 1303 l 660 1135 l 481 1135 l 401 1214 l 324 1135 l 144 1135 z "},"ü":{"ha":900,"x_min":0,"x_max":803,"o":"m 803 401 q 772 245 803 318 q 685 117 740 172 q 558 31 631 63 q 401 0 485 0 q 245 31 318 0 q 117 117 172 63 q 31 245 63 172 q 0 401 0 318 l 0 1053 l 210 1053 l 210 401 q 225 326 210 361 q 266 266 240 292 q 326 225 292 240 q 401 210 361 210 q 476 225 440 210 q 537 266 511 240 q 578 326 563 292 q 593 401 593 361 l 593 1053 l 803 1053 l 803 401 m 539 1303 q 598 1278 574 1303 q 622 1218 622 1254 q 598 1159 622 1183 q 539 1135 574 1135 q 478 1159 503 1135 q 454 1218 454 1183 q 478 1278 454 1254 q 539 1303 503 1303 m 265 1303 q 324 1278 300 1303 q 349 1218 349 1254 q 324 1159 349 1183 q 265 1135 300 1135 q 205 1159 229 1135 q 181 1218 181 1183 q 205 1278 181 1254 q 265 1303 229 1303 z "},"ý":{"ha":857,"x_min":0,"x_max":760,"o":"m 275 0 l 275 501 l 0 1053 l 235 1053 l 381 761 l 525 1053 l 760 1053 l 485 501 l 485 0 l 275 0 m 483 1304 l 349 1135 l 275 1135 l 315 1304 l 483 1304 z "},"ÿ":{"ha":857,"x_min":0,"x_max":760,"o":"m 275 0 l 275 501 l 0 1053 l 235 1053 l 381 761 l 525 1053 l 760 1053 l 485 501 l 485 0 l 275 0 m 517 1303 q 576 1278 551 1303 q 600 1218 600 1254 q 576 1159 600 1183 q 517 1135 551 1135 q 456 1159 481 1135 q 432 1218 432 1183 q 456 1278 432 1254 q 517 1303 481 1303 m 243 1303 q 302 1278 278 1303 q 326 1218 326 1254 q 302 1159 326 1183 q 243 1135 278 1135 q 183 1159 207 1135 q 158 1218 158 1183 q 183 1278 158 1254 q 243 1303 207 1303 z "},"ž":{"ha":932,"x_min":0,"x_max":835,"o":"m 0 0 l 474 842 l 42 842 l 42 1053 l 835 1053 l 360 210 l 792 210 l 792 0 l 0 0 m 339 1303 l 417 1224 l 496 1303 l 675 1303 l 507 1135 l 328 1135 l 160 1303 l 339 1303 z "},"š":{"ha":776,"x_min":0,"x_max":679,"o":"m 240 429 q 145 471 189 442 q 69 540 101 500 q 18 631 36 581 q 0 736 0 681 q 25 859 0 801 q 92 960 50 917 q 192 1028 135 1003 q 315 1053 250 1053 q 490 1024 407 1053 q 639 942 572 994 l 488 790 q 408 828 451 814 q 315 842 364 842 q 240 811 271 842 q 210 736 210 781 q 235 668 210 700 q 297 632 260 640 q 375 621 335 624 q 495 594 439 618 q 592 531 551 571 q 656 437 632 492 q 679 315 679 382 q 654 192 679 250 q 587 92 629 135 q 487 25 544 50 q 364 0 429 0 q 164 39 257 0 q 0 146 71 78 l 149 294 q 247 232 192 254 q 364 210 301 210 q 438 240 407 210 q 468 315 468 271 q 458 361 468 339 q 426 396 449 383 q 383 412 407 407 q 335 419 360 417 q 285 423 310 421 q 240 429 260 425 m 261 1303 l 339 1224 l 418 1303 l 597 1303 l 429 1135 l 250 1135 l 82 1303 l 261 1303 z "},"Æ":{"ha":1493,"x_min":0,"x_max":1396,"o":"m 761 0 l 654 294 l 331 294 l 224 0 l 0 0 l 381 1053 l 604 1053 l 761 619 l 761 1053 l 1396 1053 l 1396 842 l 971 842 l 971 631 l 1396 631 l 1396 421 l 971 421 l 971 210 l 1396 210 l 1396 0 l 761 0 l 761 0 l 761 0 m 578 506 l 492 743 l 407 506 l 578 506 l 578 506 l 578 506 z "},"Œ":{"ha":1574,"x_min":0,"x_max":1476,"o":"m 526 1053 q 695 1024 615 1053 q 842 947 775 996 l 842 1053 l 1476 1053 l 1476 842 l 1053 842 l 1053 631 l 1476 631 l 1476 421 l 1053 421 l 1053 210 l 1476 210 l 1476 0 l 842 0 l 842 106 q 695 28 775 56 q 526 0 615 0 q 322 42 418 0 q 155 155 226 83 q 42 322 83 226 q 0 526 0 418 q 42 731 0 635 q 155 898 83 826 q 322 1011 226 969 q 526 1053 418 1053 m 526 842 q 403 817 461 842 q 303 749 346 792 q 235 649 260 707 q 210 526 210 592 q 235 403 210 461 q 303 303 260 346 q 403 235 346 260 q 526 210 461 210 q 649 235 592 210 q 749 303 707 260 q 817 403 792 346 q 842 526 842 461 q 817 649 842 592 q 749 749 792 707 q 649 817 707 792 q 526 842 592 842 z "},"ﬂ":{"ha":1325,"x_min":0,"x_max":1228,"o":"m 635 0 l 635 842 l 210 842 l 210 631 l 550 631 l 550 421 l 210 421 l 210 0 l 0 0 l 0 1053 l 844 1053 l 844 210 l 1228 210 l 1228 0 l 635 0 l 635 0 l 635 0 z "},"€":{"ha":1071,"x_min":0,"x_max":974,"o":"m 610 1053 q 810 1014 717 1053 q 974 907 903 975 l 825 757 q 727 819 782 797 q 610 842 672 842 q 479 813 539 842 q 375 736 419 785 l 657 736 l 657 568 l 297 568 q 295 547 296 557 q 294 526 294 538 q 295 505 294 515 q 297 483 296 494 l 657 483 l 657 315 l 375 315 q 479 238 419 267 q 610 210 539 210 q 727 232 672 210 q 825 294 782 254 l 974 146 q 810 39 903 78 q 610 0 717 0 q 455 23 529 0 q 318 88 381 46 q 207 188 256 129 q 128 315 158 246 l 0 315 l 0 483 l 86 483 q 85 505 85 494 q 85 526 85 515 q 85 547 85 538 q 86 568 85 557 l 0 568 l 0 736 l 128 736 q 207 864 158 806 q 318 964 256 922 q 455 1029 381 1006 q 610 1053 529 1053 z "},"Ø":{"ha":1150,"x_min":0,"x_max":1053,"o":"m 526 1053 q 731 1011 635 1053 q 898 898 826 969 q 1011 731 969 826 q 1053 526 1053 635 q 1011 322 1053 418 q 898 155 969 226 q 731 42 826 83 q 526 0 635 0 q 322 42 418 0 q 155 155 226 83 q 42 322 83 226 q 0 526 0 418 q 42 731 0 635 q 155 898 83 826 q 322 1011 226 969 q 526 1053 418 1053 m 363 256 l 526 842 q 403 817 461 842 q 303 749 346 792 q 235 649 260 707 q 210 526 210 592 q 251 368 210 439 q 363 256 293 297 m 689 796 l 525 210 l 526 210 q 649 235 592 210 q 749 303 707 260 q 817 403 792 346 q 842 526 842 461 q 800 684 842 613 q 689 796 758 756 z "},"ﬁ":{"ha":1026,"x_min":0,"x_max":929,"o":"m 0 0 l 0 1053 l 635 1053 l 635 842 l 210 842 l 210 631 l 635 631 l 635 421 l 210 421 l 210 0 l 0 0 m 824 842 q 899 872 868 842 q 929 947 929 903 q 899 1022 929 992 q 824 1053 868 1053 q 750 1022 781 1053 q 719 947 719 992 q 750 872 719 903 q 824 842 781 842 m 719 757 l 719 0 l 929 0 l 929 757 l 719 757 z "},"Ð":{"ha":1001,"x_min":0,"x_max":904,"o":"m 85 0 l 85 442 l 0 442 l 0 610 l 85 610 l 85 1053 l 379 1053 q 583 1011 488 1053 q 751 898 679 969 q 863 731 822 826 q 904 526 904 635 q 863 322 904 418 q 751 155 822 226 q 583 42 679 83 q 379 0 488 0 l 85 0 m 294 610 l 379 610 l 379 442 l 294 442 l 294 210 l 379 210 q 502 235 444 210 q 602 303 560 260 q 669 403 644 346 q 694 526 694 461 q 669 649 694 592 q 602 749 644 707 q 502 817 560 792 q 379 842 444 842 l 294 842 l 294 610 z "},"¢":{"ha":986,"x_min":0,"x_max":889,"o":"m 529 1053 q 726 1013 633 1051 q 889 907 818 974 l 740 757 q 644 819 699 797 q 526 842 589 842 q 403 817 461 842 q 303 749 346 792 q 235 649 260 707 q 210 526 210 592 q 235 403 210 461 q 303 303 260 346 q 403 235 346 260 q 526 210 461 210 q 644 232 589 210 q 740 294 699 254 l 889 146 q 726 39 818 78 q 529 0 633 0 l 529 -168 l 361 -168 l 361 26 q 216 101 282 53 q 102 215 150 150 q 27 360 54 281 q 0 526 0 439 q 27 692 0 614 q 102 836 54 771 q 216 950 150 901 q 361 1025 282 999 l 361 1221 l 529 1221 l 529 1053 z "},"£":{"ha":821,"x_min":0,"x_max":724,"o":"m 85 736 q 109 859 85 801 q 176 960 133 917 q 277 1028 219 1003 q 400 1053 335 1053 q 574 1024 492 1053 q 724 942 656 994 l 572 790 q 492 828 535 814 q 400 842 449 842 q 325 811 356 842 q 294 736 294 781 l 294 610 l 572 610 l 572 442 l 294 442 l 294 210 l 724 210 l 724 0 l 294 0 l 35 0 l 35 210 q 69 224 56 210 q 85 260 83 239 l 85 442 l 0 442 l 0 610 l 85 610 l 85 736 z "},"¥":{"ha":857,"x_min":0,"x_max":760,"o":"m 275 0 l 275 249 l 128 249 l 128 417 l 275 417 l 275 501 l 128 501 l 128 669 l 190 669 l 0 1053 l 235 1053 l 381 761 l 525 1053 l 760 1053 l 569 669 l 632 669 l 632 501 l 485 501 l 485 417 l 632 417 l 632 249 l 485 249 l 485 0 l 275 0 l 275 0 l 275 0 z "},"…":{"ha":771,"x_min":0,"x_max":674,"o":"m 85 168 q 144 144 119 168 q 168 85 168 119 q 144 24 168 49 q 85 0 119 0 q 24 24 49 0 q 0 85 0 49 q 24 144 0 119 q 85 168 49 168 m 589 168 q 649 144 625 168 q 674 85 674 119 q 649 24 674 49 q 589 0 625 0 q 530 24 554 0 q 506 85 506 49 q 530 144 506 119 q 589 168 554 168 m 336 168 q 397 144 372 168 q 421 85 421 119 q 397 24 421 49 q 336 0 372 0 q 277 24 301 0 q 253 85 253 49 q 277 144 253 119 q 336 168 301 168 z "},"Ł":{"ha":858,"x_min":0,"x_max":761,"o":"m 168 0 l 168 389 l 71 343 l 0 496 l 168 574 l 168 1053 l 379 1053 l 379 672 l 458 710 l 529 557 l 379 486 l 379 210 l 761 210 l 761 0 l 168 0 l 168 0 l 168 0 z "},"™":{"ha":597,"x_min":0,"x_max":500,"o":"m 193 1001 l 122 1001 l 122 800 l 71 800 l 71 1001 l 0 1001 l 0 1053 l 193 1053 l 193 1001 l 193 1001 l 193 1001 m 399 800 l 344 800 l 293 926 l 293 800 l 243 800 l 243 1053 l 243 1053 l 297 1053 l 371 868 l 446 1053 l 500 1053 l 500 1053 l 500 800 l 449 800 l 449 926 l 399 800 l 399 800 l 399 800 z "},"Þ":{"ha":729,"x_min":0,"x_max":632,"o":"m 0 0 l 0 1053 l 210 1053 l 210 947 l 294 947 q 426 921 364 947 q 533 849 488 894 q 606 741 579 803 q 632 610 632 679 l 632 442 q 606 311 632 372 q 533 204 579 250 q 426 132 488 158 q 294 106 364 106 l 210 106 l 210 0 l 0 0 m 210 315 l 294 315 q 384 352 347 315 q 421 442 421 389 l 421 610 q 411 659 421 636 q 384 699 401 682 q 344 726 367 717 q 294 736 321 736 l 210 736 l 210 315 z "},"≈":{"ha":603,"x_min":0,"x_max":506,"o":"m 506 599 q 399 554 447 561 q 288 568 350 547 q 201 595 238 586 q 133 603 165 604 q 70 588 101 601 q 0 549 39 575 l 0 675 q 71 710 39 699 q 134 724 103 722 q 199 717 165 725 q 275 694 233 710 q 340 677 311 682 q 394 676 368 672 q 447 691 421 679 q 506 725 474 703 l 506 599 m 506 378 q 399 333 447 340 q 288 347 350 325 q 201 373 238 364 q 133 381 165 382 q 70 367 101 381 q 0 328 39 354 l 0 453 q 71 488 39 476 q 134 501 103 500 q 199 495 165 503 q 275 474 233 488 q 340 456 311 461 q 394 453 368 450 q 447 469 421 457 q 506 503 474 481 l 506 378 z "},"≠":{"ha":603,"x_min":0,"x_max":506,"o":"m 0 568 l 0 736 l 249 736 l 336 1053 l 463 1053 l 375 736 l 506 736 l 506 568 l 328 568 l 304 483 l 506 483 l 506 315 l 257 315 l 168 0 l 42 0 l 131 315 l 0 315 l 0 483 l 178 483 l 201 568 l 0 568 l 0 568 l 0 568 z "},"‡":{"ha":603,"x_min":0,"x_max":506,"o":"m 168 -168 l 168 189 l 0 189 l 0 358 l 168 358 l 168 694 l 0 694 l 0 863 l 168 863 l 168 1221 l 336 1221 l 336 863 l 506 863 l 506 694 l 336 694 l 336 358 l 506 358 l 506 189 l 336 189 l 336 -168 l 168 -168 l 168 -168 l 168 -168 z "},"†":{"ha":603,"x_min":0,"x_max":506,"o":"m 168 -168 l 168 694 l 0 694 l 0 863 l 168 863 l 168 1221 l 336 1221 l 336 863 l 506 863 l 506 694 l 336 694 l 336 -168 l 168 -168 l 168 -168 l 168 -168 z "},"•":{"ha":350,"x_min":0,"x_max":253,"o":"m 126 653 q 216 616 179 653 q 253 526 253 579 q 216 437 253 474 q 126 400 179 400 q 37 437 74 400 q 0 526 0 474 q 37 616 0 579 q 126 653 74 653 z "},"·":{"ha":265,"x_min":0,"x_max":168,"o":"m 85 610 q 144 585 119 610 q 168 526 168 561 q 144 466 168 490 q 85 442 119 442 q 24 466 49 442 q 0 526 0 490 q 24 585 0 561 q 85 610 49 610 z "},"°":{"ha":350,"x_min":0,"x_max":253,"o":"m 126 1053 q 216 1016 179 1053 q 253 926 253 979 q 243 877 253 900 q 216 837 233 854 q 176 810 199 819 q 126 800 153 800 q 77 810 100 800 q 37 837 54 819 q 10 877 19 854 q 0 926 0 900 q 37 1016 0 979 q 126 1053 74 1053 m 126 1001 q 72 980 94 1001 q 50 926 50 958 q 72 872 50 894 q 126 850 94 850 q 180 872 158 850 q 201 926 201 894 q 180 980 201 958 q 126 1001 158 1001 z "},"ª":{"ha":333,"x_min":0,"x_max":236,"o":"m 236 800 l 182 800 l 157 871 l 79 871 l 54 800 l 0 800 l 92 1053 l 144 1053 l 236 800 l 236 800 l 236 800 m 139 921 l 118 978 l 97 921 l 139 921 l 139 921 l 139 921 z "},"²":{"ha":243,"x_min":0,"x_max":146,"o":"m 65 1053 q 122 1028 99 1053 q 146 971 146 1004 q 124 915 146 940 q 117 910 121 913 q 111 904 114 907 q 71 882 92 893 q 50 850 50 871 l 146 850 l 146 800 l 0 800 l 0 850 q 8 886 0 869 q 33 917 18 906 q 67 938 49 928 q 90 954 85 944 q 96 971 96 961 q 87 992 96 983 q 65 1001 78 1001 q 38 982 44 1001 l 0 1018 q 28 1043 11 1033 q 65 1053 46 1053 z "},"º":{"ha":350,"x_min":0,"x_max":253,"o":"m 126 1053 q 216 1016 179 1053 q 253 926 253 979 q 243 877 253 900 q 216 837 233 854 q 176 810 199 819 q 126 800 153 800 q 77 810 100 800 q 37 837 54 819 q 10 877 19 854 q 0 926 0 900 q 37 1016 0 979 q 126 1053 74 1053 m 126 1001 q 72 980 94 1001 q 50 926 50 958 q 72 872 50 894 q 126 850 94 850 q 180 872 158 850 q 201 926 201 894 q 180 980 201 958 q 126 1001 158 1001 z "},"³":{"ha":250,"x_min":0,"x_max":153,"o":"m 128 939 q 153 881 153 917 q 129 824 153 847 q 72 800 106 800 q 0 822 33 800 l 19 871 q 72 850 43 850 q 93 859 85 850 q 101 881 101 868 q 93 902 101 893 q 72 911 85 911 l 61 911 l 61 961 l 72 961 q 85 967 79 961 q 90 982 90 974 q 71 1001 90 1001 q 56 996 63 1001 q 50 982 50 990 l 11 1021 q 36 1044 21 1035 q 71 1053 51 1053 q 121 1032 100 1053 q 142 982 142 1011 q 128 939 142 960 z "},"˚":{"ha":265,"x_min":0,"x_max":168,"o":"m 85 1222 q 144 1197 119 1222 q 168 1138 168 1172 q 144 1077 168 1101 q 85 1053 119 1053 q 24 1077 49 1053 q 0 1138 0 1101 q 24 1197 0 1172 q 85 1222 49 1222 m 85 1188 q 48 1173 63 1188 q 33 1138 33 1158 q 48 1102 33 1117 q 85 1088 63 1088 q 120 1102 106 1088 q 135 1138 135 1117 q 120 1173 135 1158 q 85 1188 106 1188 z "},"¹":{"ha":168,"x_min":0,"x_max":71,"o":"m 19 800 l 19 1001 l 0 1001 l 19 1053 l 71 1053 l 71 800 l 19 800 l 19 800 l 19 800 z "},"¯":{"ha":574,"x_min":0,"x_max":476,"o":"m 0 1053 l 0 1179 l 476 1179 l 476 1053 l 0 1053 z "},"¦":{"ha":265,"x_min":0,"x_max":168,"o":"m 0 -168 l 0 442 l 168 442 l 168 -168 l 0 -168 l 0 -168 l 0 -168 m 0 610 l 0 1221 l 168 1221 l 168 610 l 0 610 l 0 610 l 0 610 z "},"–":{"ha":792,"x_min":0,"x_max":694,"o":"m 0 442 l 0 610 l 694 610 l 694 442 l 0 442 z "},"—":{"ha":1000,"x_min":0,"x_max":903,"o":"m 0 442 l 0 610 l 903 610 l 903 442 l 0 442 z "},"Å":{"ha":1082,"x_min":0,"x_max":985,"o":"m 985 0 l 761 0 l 654 294 l 331 294 l 224 0 l 0 0 l 381 1053 l 604 1053 l 985 0 m 493 1304 q 552 1279 528 1304 q 576 1219 576 1254 q 552 1159 576 1183 q 493 1135 528 1135 q 433 1159 457 1135 q 408 1219 408 1183 q 433 1279 408 1254 q 493 1304 457 1304 m 578 506 l 492 743 l 407 506 l 578 506 m 493 1269 q 456 1255 471 1269 q 442 1219 442 1240 q 456 1184 442 1199 q 493 1169 471 1169 q 528 1184 514 1169 q 543 1219 543 1199 q 528 1255 543 1240 q 493 1269 514 1269 z "},"å":{"ha":1082,"x_min":0,"x_max":985,"o":"m 985 0 l 761 0 l 654 294 l 331 294 l 224 0 l 0 0 l 381 1053 l 604 1053 l 985 0 m 493 1304 q 552 1279 528 1304 q 576 1219 576 1254 q 552 1159 576 1183 q 493 1135 528 1135 q 433 1159 457 1135 q 408 1219 408 1183 q 433 1279 408 1254 q 493 1304 457 1304 m 578 506 l 492 743 l 407 506 l 578 506 m 493 1269 q 456 1255 471 1269 q 442 1219 442 1240 q 456 1184 442 1199 q 493 1169 471 1169 q 528 1184 514 1169 q 543 1219 543 1199 q 528 1255 543 1240 q 493 1269 514 1269 z "},"æ":{"ha":1493,"x_min":0,"x_max":1396,"o":"m 761 0 l 654 294 l 331 294 l 224 0 l 0 0 l 381 1053 l 604 1053 l 761 619 l 761 1053 l 1396 1053 l 1396 842 l 971 842 l 971 631 l 1396 631 l 1396 421 l 971 421 l 971 210 l 1396 210 l 1396 0 l 761 0 l 761 0 l 761 0 m 578 506 l 492 743 l 407 506 l 578 506 l 578 506 l 578 506 z "},"ð":{"ha":1001,"x_min":0,"x_max":904,"o":"m 85 0 l 85 442 l 0 442 l 0 610 l 85 610 l 85 1053 l 379 1053 q 583 1011 488 1053 q 751 898 679 969 q 863 731 822 826 q 904 526 904 635 q 863 322 904 418 q 751 155 822 226 q 583 42 679 83 q 379 0 488 0 l 85 0 m 294 610 l 379 610 l 379 442 l 294 442 l 294 210 l 379 210 q 502 235 444 210 q 602 303 560 260 q 669 403 644 346 q 694 526 694 461 q 669 649 694 592 q 602 749 644 707 q 502 817 560 792 q 379 842 444 842 l 294 842 l 294 610 z "},"ø":{"ha":1150,"x_min":0,"x_max":1053,"o":"m 526 1053 q 731 1011 635 1053 q 898 898 826 969 q 1011 731 969 826 q 1053 526 1053 635 q 1011 322 1053 418 q 898 155 969 226 q 731 42 826 83 q 526 0 635 0 q 322 42 418 0 q 155 155 226 83 q 42 322 83 226 q 0 526 0 418 q 42 731 0 635 q 155 898 83 826 q 322 1011 226 969 q 526 1053 418 1053 m 363 256 l 526 842 q 403 817 461 842 q 303 749 346 792 q 235 649 260 707 q 210 526 210 592 q 251 368 210 439 q 363 256 293 297 m 689 796 l 525 210 l 526 210 q 649 235 592 210 q 749 303 707 260 q 817 403 792 346 q 842 526 842 461 q 800 684 842 613 q 689 796 758 756 z "},"þ":{"ha":729,"x_min":0,"x_max":632,"o":"m 0 0 l 0 1053 l 210 1053 l 210 947 l 294 947 q 426 921 364 947 q 533 849 488 894 q 606 741 579 803 q 632 610 632 679 l 632 442 q 606 311 632 372 q 533 204 579 250 q 426 132 488 158 q 294 106 364 106 l 210 106 l 210 0 l 0 0 m 210 315 l 294 315 q 384 352 347 315 q 421 442 421 389 l 421 610 q 411 659 421 636 q 384 699 401 682 q 344 726 367 717 q 294 736 321 736 l 210 736 l 210 315 z "},"ł":{"ha":858,"x_min":0,"x_max":761,"o":"m 168 0 l 168 389 l 71 343 l 0 496 l 168 574 l 168 1053 l 379 1053 l 379 672 l 458 710 l 529 557 l 379 486 l 379 210 l 761 210 l 761 0 l 168 0 l 168 0 l 168 0 z "},"œ":{"ha":1574,"x_min":0,"x_max":1476,"o":"m 526 1053 q 695 1024 615 1053 q 842 947 775 996 l 842 1053 l 1476 1053 l 1476 842 l 1053 842 l 1053 631 l 1476 631 l 1476 421 l 1053 421 l 1053 210 l 1476 210 l 1476 0 l 842 0 l 842 106 q 695 28 775 56 q 526 0 615 0 q 322 42 418 0 q 155 155 226 83 q 42 322 83 226 q 0 526 0 418 q 42 731 0 635 q 155 898 83 826 q 322 1011 226 969 q 526 1053 418 1053 m 526 842 q 403 817 461 842 q 303 749 346 792 q 235 649 260 707 q 210 526 210 592 q 235 403 210 461 q 303 303 260 346 q 403 235 346 260 q 526 210 461 210 q 649 235 592 210 q 749 303 707 260 q 817 403 792 346 q 842 526 842 461 q 817 649 842 592 q 749 749 792 707 q 649 817 707 792 q 526 842 592 842 z "},"˝":{"ha":514,"x_min":0,"x_max":417,"o":"m 208 1053 l 74 883 l 0 883 l 40 1053 l 208 1053 m 417 1053 l 282 883 l 208 883 l 249 1053 l 417 1053 z "},"ƒ":{"ha":518,"x_min":0,"x_max":421,"o":"m 126 836 q 144 920 126 881 q 190 989 161 960 q 259 1035 219 1018 q 344 1053 299 1053 l 421 1053 l 421 928 l 344 928 q 309 913 324 928 q 294 878 294 899 l 294 694 l 421 694 l 421 526 l 294 526 l 294 49 q 277 -35 294 4 q 231 -104 260 -75 q 162 -151 201 -133 q 76 -168 122 -168 l 0 -168 l 0 -42 l 76 -42 q 112 -27 97 -42 q 126 7 126 -12 l 126 526 l 0 526 l 0 694 l 126 694 l 126 836 z "},"∫":{"ha":518,"x_min":0,"x_max":421,"o":"m 126 836 q 144 920 126 881 q 190 989 161 960 q 259 1035 219 1018 q 344 1053 299 1053 l 421 1053 l 421 928 l 344 928 q 309 913 324 928 q 294 878 294 899 l 294 49 q 277 -35 294 4 q 231 -104 260 -75 q 162 -151 201 -133 q 76 -168 122 -168 l 0 -168 l 0 -42 l 76 -42 q 112 -27 97 -42 q 126 7 126 -12 l 126 836 z "},"§":{"ha":776,"x_min":0,"x_max":679,"o":"m 240 599 q 228 601 233 600 q 217 604 224 603 q 210 568 210 586 q 235 500 210 529 q 297 463 260 471 q 375 453 335 456 q 458 439 421 450 q 468 483 468 458 q 458 529 468 507 q 426 564 449 551 q 383 580 407 575 q 335 587 360 585 q 285 591 310 589 q 240 599 260 593 m 49 736 q 13 815 25 772 q 0 904 0 858 q 25 1027 0 969 q 92 1128 50 1085 q 192 1196 135 1171 q 315 1221 250 1221 q 490 1192 407 1221 q 639 1110 572 1163 l 488 958 q 315 1010 413 1010 q 240 979 271 1010 q 210 904 210 949 q 235 838 210 867 q 297 800 260 808 q 375 789 335 792 q 495 763 439 786 q 592 699 551 739 q 656 605 632 660 q 679 483 679 550 q 667 395 679 438 q 631 317 654 353 q 667 238 654 281 q 679 147 679 196 q 654 24 679 82 q 587 -76 629 -33 q 487 -143 544 -118 q 364 -168 429 -168 q 164 -129 257 -168 q 0 -22 71 -90 l 149 126 q 247 64 192 86 q 364 42 301 42 q 438 72 407 42 q 468 146 468 103 q 458 193 468 171 q 426 228 449 215 q 383 244 407 239 q 335 251 360 249 q 285 255 310 253 q 240 261 260 257 q 145 302 189 274 q 69 372 101 331 q 18 463 36 413 q 0 568 0 513 q 13 658 0 615 q 49 736 25 700 z "},"∏":{"ha":900,"x_min":0,"x_max":803,"o":"m 0 -168 l 0 1053 l 803 1053 l 803 -168 l 593 -168 l 593 928 l 210 928 l 210 -168 l 0 -168 l 0 -168 l 0 -168 z "},"¶":{"ha":1257,"x_min":0,"x_max":1160,"o":"m 525 -168 l 315 -168 l 315 422 q 192 447 250 422 q 92 515 135 472 q 24 615 49 557 q 0 738 0 672 q 25 860 0 803 q 92 960 50 918 q 192 1028 135 1003 q 315 1053 250 1053 l 1160 1053 l 1160 843 l 947 843 l 947 -168 l 738 -168 l 738 843 l 525 843 l 525 -168 z "},"∆":{"ha":939,"x_min":0,"x_max":842,"o":"m 0 0 l 336 1053 l 506 1053 l 842 0 l 0 0 l 0 0 l 0 0 m 619 168 l 421 790 l 222 168 l 619 168 l 619 168 l 619 168 z "},"µ":{"ha":900,"x_min":0,"x_max":803,"o":"m 803 403 q 772 247 803 319 q 685 119 740 174 q 558 33 631 64 q 401 1 485 1 q 301 14 349 1 q 210 50 253 26 l 210 -168 l 0 -168 l 0 1053 l 210 1053 l 210 403 q 225 328 210 363 q 266 267 240 293 q 326 226 292 242 q 401 211 361 211 q 476 226 440 211 q 537 267 511 242 q 578 328 563 293 q 593 403 593 363 l 593 1053 l 803 1053 l 803 403 z "},"∑":{"ha":868,"x_min":0,"x_max":771,"o":"m 0 0 l 315 528 l 0 1053 l 771 1053 l 771 843 l 372 843 l 561 528 l 372 210 l 771 210 l 771 0 l 0 0 l 0 0 l 0 0 z "},"√":{"ha":856,"x_min":0,"x_max":758,"o":"m 369 -168 l 194 -168 l 0 526 l 175 526 l 282 144 l 583 1221 l 758 1221 l 369 -168 l 369 -168 l 369 -168 z "},"¬":{"ha":603,"x_min":0,"x_max":506,"o":"m 0 442 l 0 610 l 506 610 l 506 274 l 336 274 l 336 442 l 0 442 l 0 442 l 0 442 z "},"∂":{"ha":771,"x_min":0,"x_max":674,"o":"m 336 674 q 402 667 371 674 q 463 649 433 660 l 463 715 q 453 765 463 742 q 426 805 443 788 q 385 832 408 822 q 336 842 363 842 q 263 818 296 842 q 218 757 231 794 l 64 911 q 181 1014 110 976 q 336 1051 251 1051 q 467 1025 406 1051 q 575 953 529 999 q 647 846 621 907 q 674 715 674 785 l 674 336 q 647 206 674 267 q 575 99 621 144 q 467 26 529 53 q 336 0 406 0 q 206 26 267 0 q 99 99 144 53 q 26 206 53 144 q 0 336 0 267 q 26 467 0 406 q 99 575 53 529 q 206 647 144 621 q 336 674 267 674 m 210 336 q 247 247 210 283 q 336 210 283 210 q 385 219 363 210 q 426 247 408 229 q 453 287 443 264 q 463 336 463 310 q 426 426 463 389 q 336 463 389 463 q 287 453 310 463 q 247 426 264 443 q 219 385 229 408 q 210 336 210 363 z "},"π":{"ha":771,"x_min":0,"x_max":674,"o":"m 0 0 l 71 442 l 0 442 l 0 610 l 674 610 l 674 442 l 603 442 l 674 0 l 506 0 l 435 442 l 239 442 l 168 0 l 0 0 l 0 0 l 0 0 z "},"∞":{"ha":1258,"x_min":0,"x_max":1161,"o":"m 315 842 q 469 803 399 842 q 581 697 539 764 q 693 803 624 764 q 846 842 763 842 q 969 817 911 842 q 1069 749 1026 792 q 1136 649 1111 707 q 1161 526 1161 592 q 1136 403 1161 461 q 1069 303 1111 346 q 969 235 1026 260 q 846 210 911 210 q 693 249 763 210 q 581 354 624 289 q 469 249 539 289 q 315 210 399 210 q 192 235 250 210 q 92 303 135 260 q 25 403 50 346 q 0 526 0 461 q 25 649 0 592 q 92 749 50 707 q 192 817 135 792 q 315 842 250 842 m 846 740 q 763 724 801 740 q 694 678 724 707 q 648 610 665 649 q 631 526 631 571 q 648 442 631 482 q 694 374 665 403 q 763 328 724 344 q 846 311 801 311 q 929 328 890 311 q 997 374 968 344 q 1044 442 1026 403 q 1061 526 1061 482 q 1044 610 1061 571 q 997 678 1026 649 q 929 724 968 707 q 846 740 890 740 m 315 740 q 232 724 271 740 q 164 678 193 707 q 118 610 135 649 q 101 526 101 571 q 118 442 101 482 q 164 374 135 403 q 232 328 193 344 q 315 311 271 311 q 399 328 360 311 q 468 374 439 344 q 514 442 497 403 q 531 526 531 482 q 514 610 531 571 q 468 678 497 649 q 399 724 439 707 q 315 740 360 740 z "},"Ω":{"ha":981,"x_min":0,"x_max":883,"o":"m 526 1053 q 665 1024 600 1053 q 779 947 731 996 q 856 833 828 899 q 883 694 883 768 l 761 168 l 883 168 l 883 0 l 549 0 l 715 703 q 699 774 714 740 q 658 831 683 807 q 598 869 632 856 q 526 883 564 883 l 358 883 q 286 869 319 883 q 227 831 253 856 q 185 774 201 807 q 168 703 169 740 l 335 0 l 0 0 l 0 168 l 122 168 l 0 694 q 28 833 0 768 q 104 947 56 899 q 218 1024 153 996 q 358 1053 283 1053 l 526 1053 z "},"¸":{"ha":283,"x_min":0,"x_max":186,"o":"m 186 107 q 178 14 186 63 q 149 -75 169 -35 q 92 -142 128 -115 q 0 -168 56 -168 l 0 -42 q 28 -28 17 -42 q 47 6 39 -15 q 57 54 54 28 q 60 107 60 81 l 186 107 z "},"˛":{"ha":283,"x_min":0,"x_max":186,"o":"m 0 107 l 126 107 q 129 54 126 81 q 140 6 132 28 q 158 -28 147 -15 q 186 -42 169 -42 l 186 -168 q 94 -142 131 -168 q 38 -75 58 -115 q 8 14 17 -35 q 0 107 0 63 z "},"Ç":{"ha":986,"x_min":0,"x_max":889,"o":"m 526 1053 q 725 1014 632 1053 q 889 907 818 975 l 740 757 q 644 819 699 797 q 526 842 589 842 q 403 817 461 842 q 303 749 346 792 q 235 649 260 707 q 210 526 210 592 q 235 403 210 461 q 303 303 260 346 q 403 235 346 260 q 526 210 461 210 q 644 232 589 210 q 740 294 699 254 l 889 146 q 761 56 832 92 q 608 7 690 19 q 588 -59 601 -28 q 553 -115 574 -90 q 502 -153 532 -139 q 432 -168 472 -168 l 432 -42 q 460 -29 449 -42 q 478 3 471 -17 q 290 56 378 11 q 138 170 203 100 q 37 332 74 240 q 0 526 0 424 q 42 731 0 635 q 155 898 83 826 q 322 1011 226 969 q 526 1053 418 1053 z "},"ç":{"ha":986,"x_min":0,"x_max":889,"o":"m 526 1053 q 725 1014 632 1053 q 889 907 818 975 l 740 757 q 644 819 699 797 q 526 842 589 842 q 403 817 461 842 q 303 749 346 792 q 235 649 260 707 q 210 526 210 592 q 235 403 210 461 q 303 303 260 346 q 403 235 346 260 q 526 210 461 210 q 644 232 589 210 q 740 294 699 254 l 889 146 q 761 56 832 92 q 608 7 690 19 q 588 -59 601 -28 q 553 -115 574 -90 q 502 -153 532 -139 q 432 -168 472 -168 l 432 -42 q 460 -29 449 -42 q 478 3 471 -17 q 290 56 378 11 q 138 170 203 100 q 37 332 74 240 q 0 526 0 424 q 42 731 0 635 q 155 898 83 826 q 322 1011 226 969 q 526 1053 418 1053 z "},"¾":{"ha":946,"x_min":0,"x_max":849,"o":"m 268 814 q 308 758 293 790 q 322 690 322 726 q 309 624 322 654 q 272 569 296 593 q 217 533 249 546 q 151 519 186 519 q 0 567 67 519 l 43 668 q 151 626 88 626 q 197 644 178 626 q 215 690 215 663 q 197 735 215 717 q 151 754 178 754 l 131 754 l 131 860 l 151 860 q 180 874 168 861 q 192 903 192 886 q 179 933 192 921 q 149 946 167 946 q 119 933 131 946 q 107 903 107 921 l 25 985 q 77 1034 44 1015 q 149 1053 110 1053 q 207 1041 179 1053 q 255 1008 235 1029 q 287 960 275 988 q 299 903 299 933 q 268 814 299 853 m 700 0 l 700 128 l 499 128 l 499 225 l 699 533 l 807 533 l 807 235 l 849 235 l 849 128 l 807 128 l 807 0 l 700 0 m 632 235 l 700 235 l 700 339 l 632 235 m 347 0 l 222 0 l 517 1053 l 642 1053 l 347 0 z "},"ß":{"ha":813,"x_min":0,"x_max":715,"o":"m 315 1053 q 438 1028 381 1053 q 538 960 496 1003 q 606 859 581 917 q 631 736 631 801 q 619 649 631 692 q 585 571 607 607 q 680 461 644 528 q 715 315 715 394 q 690 192 715 250 q 623 92 665 135 q 523 25 581 50 q 400 0 465 0 l 315 0 l 315 210 l 400 210 q 474 240 443 210 q 504 315 504 271 q 474 390 504 360 q 400 421 443 421 l 315 421 l 315 631 q 390 661 360 631 q 421 736 421 692 q 390 811 421 781 q 315 842 360 842 q 240 811 271 842 q 210 736 210 781 l 210 0 l 0 0 l 0 736 q 25 859 0 801 q 92 960 50 917 q 192 1028 135 1003 q 315 1053 250 1053 z "},"˘":{"ha":611,"x_min":0,"x_max":514,"o":"m 239 1053 q 158 1065 199 1056 q 84 1094 118 1075 q 27 1144 50 1114 q 0 1221 4 1175 l 129 1221 q 178 1188 140 1199 q 257 1178 215 1178 q 335 1188 299 1178 q 385 1221 372 1199 l 514 1221 q 487 1144 510 1175 q 430 1094 464 1114 q 355 1065 396 1075 q 274 1053 314 1056 l 239 1053 l 239 1053 z "},"¤":{"ha":782,"x_min":0,"x_max":685,"o":"m 168 789 q 252 828 207 815 q 342 842 297 842 q 432 828 388 842 q 517 789 476 815 l 596 868 l 685 779 l 606 700 q 644 615 632 660 q 657 526 657 571 q 644 435 657 481 q 606 351 632 390 l 685 274 l 596 183 l 517 263 q 432 223 476 236 q 342 210 388 210 q 252 223 297 210 q 168 263 207 236 l 89 183 l 0 274 l 79 351 q 40 435 53 390 q 26 526 26 481 q 40 615 26 571 q 79 700 53 660 l 0 779 l 89 868 l 168 789 m 190 678 q 143 607 158 646 q 128 526 128 568 q 143 445 128 485 q 190 374 158 406 q 260 326 221 342 q 342 311 300 311 q 423 326 383 311 q 494 374 463 342 q 541 445 525 406 q 557 526 557 485 q 541 607 557 568 q 494 678 525 646 q 423 724 463 708 q 342 740 383 740 q 260 724 300 740 q 190 678 221 708 z "},"◊":{"ha":899,"x_min":0,"x_max":801,"o":"m 499 0 l 304 0 l 0 526 l 304 1053 l 499 1053 l 801 526 l 499 0 l 499 0 l 499 0 m 607 526 l 401 883 l 194 526 l 401 168 l 607 526 l 607 526 l 607 526 z "},"¼":{"ha":817,"x_min":0,"x_max":719,"o":"m 218 0 l 92 0 l 386 1053 l 513 1053 l 218 0 l 218 0 l 218 0 m 571 0 l 571 128 l 369 128 l 369 225 l 569 533 l 676 533 l 676 235 l 719 235 l 719 128 l 676 128 l 676 0 l 571 0 l 571 0 l 571 0 m 503 235 l 571 235 l 571 339 l 503 235 l 503 235 l 503 235 m 43 519 l 43 946 l 0 946 l 43 1053 l 149 1053 l 149 519 l 43 519 l 43 519 l 43 519 z "},"½":{"ha":839,"x_min":0,"x_max":742,"o":"m 43 519 l 43 946 l 0 946 l 43 1053 l 149 1053 l 149 519 l 43 519 m 572 533 q 638 520 607 533 q 692 483 669 507 q 728 428 715 460 q 742 363 742 397 q 729 298 742 328 q 694 244 717 268 q 681 232 688 238 q 667 221 675 226 q 625 197 647 208 q 584 174 603 186 q 553 145 565 161 q 540 107 540 129 l 742 107 l 742 0 l 433 0 l 433 107 q 451 182 433 147 q 504 247 471 222 q 575 292 538 271 q 603 306 589 299 q 625 328 617 314 q 636 363 636 343 q 617 408 636 389 q 572 426 599 426 q 535 415 551 426 q 511 383 518 403 l 433 461 q 493 513 457 493 q 572 533 529 533 m 218 0 l 92 0 l 386 1053 l 513 1053 l 218 0 z "},"®":{"ha":350,"x_min":0,"x_max":253,"o":"m 126 1053 q 216 1016 179 1053 q 253 926 253 979 q 243 877 253 900 q 216 837 233 854 q 176 810 199 819 q 126 800 153 800 q 77 810 100 800 q 37 837 54 819 q 10 877 19 854 q 0 926 0 900 q 37 1016 0 979 q 126 1053 74 1053 m 94 875 l 94 976 l 124 976 q 145 967 136 976 q 154 946 154 958 q 138 919 154 929 l 157 875 l 135 875 l 117 915 l 115 915 l 115 875 l 94 875 m 115 936 l 124 936 q 133 946 133 936 q 124 956 133 956 l 115 956 l 115 936 m 126 1011 q 65 987 90 1011 q 40 926 40 963 q 65 865 40 890 q 126 840 90 840 q 188 865 163 840 q 213 926 213 890 q 188 987 213 963 q 126 1011 163 1011 z "},"©":{"ha":728,"x_min":0,"x_max":631,"o":"m 315 842 q 438 817 381 842 q 538 749 496 792 q 606 649 581 707 q 631 526 631 592 q 606 403 631 461 q 538 303 581 346 q 438 235 496 260 q 315 210 381 210 q 192 235 250 210 q 92 303 135 260 q 25 403 50 346 q 0 526 0 461 q 25 649 0 592 q 92 749 50 707 q 192 817 135 792 q 315 842 250 842 m 315 653 q 364 643 342 653 q 403 617 386 633 l 367 582 q 315 601 347 601 q 262 580 283 601 q 240 526 240 558 q 262 472 240 494 q 315 450 283 450 q 367 471 346 450 l 403 435 q 315 400 368 400 q 226 437 263 400 q 189 526 189 474 q 226 616 189 579 q 315 653 263 653 m 315 740 q 232 724 271 740 q 164 678 193 707 q 118 610 135 649 q 101 526 101 571 q 118 442 101 482 q 164 374 135 403 q 232 328 193 344 q 315 311 271 311 q 399 328 360 311 q 468 374 439 344 q 514 442 497 403 q 531 526 531 482 q 514 610 531 571 q 468 678 497 649 q 399 724 439 707 q 315 740 360 740 z "},"ı":{"ha":307,"x_min":0,"x_max":210,"o":"m 0 590 l 210 590 l 210 -168 l 0 -168 l 0 590 z "},"M":{"ha":1165,"x_min":0,"x_max":1068,"o":"m 647 0 l 421 0 l 210 526 l 210 0 l 0 0 l 0 1053 l 0 1053 l 226 1053 l 535 283 l 842 1053 l 1068 1053 l 1068 1053 l 1068 0 l 858 0 l 858 526 l 647 0 l 647 0 l 647 0 z "},"˜":{"ha":574,"x_min":0,"x_max":476,"o":"m 476 1092 q 377 1054 424 1060 q 272 1068 331 1049 q 190 1093 225 1085 q 125 1101 156 1101 q 65 1090 94 1101 q 0 1056 35 1079 l 0 1178 q 65 1209 35 1199 q 126 1220 96 1219 q 188 1213 156 1221 q 261 1192 221 1206 q 322 1174 294 1179 q 375 1172 350 1169 q 424 1185 400 1175 q 476 1215 449 1196 l 476 1092 z "},"¨":{"ha":539,"x_min":0,"x_max":442,"o":"m 85 1221 q 144 1197 119 1221 q 168 1136 168 1172 q 144 1077 168 1101 q 85 1053 119 1053 q 24 1077 49 1053 q 0 1136 0 1101 q 24 1197 0 1172 q 85 1221 49 1221 m 358 1221 q 417 1197 393 1221 q 442 1136 442 1172 q 417 1077 442 1101 q 358 1053 393 1053 q 298 1077 322 1053 q 274 1136 274 1101 q 298 1197 274 1172 q 358 1221 322 1221 z "}}}
